<?xml version="1.0" encoding="utf-8" standalone="no"?>
<!DOCTYPE svg PUBLIC "-//W3C//DTD SVG 1.1//EN"
  "http://www.w3.org/Graphics/SVG/1.1/DTD/svg11.dtd">
<svg xmlns:xlink="http://www.w3.org/1999/xlink" width="1127.573437pt" height="694.986469pt" viewBox="0 0 1127.573437 694.986469" xmlns="http://www.w3.org/2000/svg" version="1.1">
 <metadata>
  <rdf:RDF xmlns:dc="http://purl.org/dc/elements/1.1/" xmlns:cc="http://creativecommons.org/ns#" xmlns:rdf="http://www.w3.org/1999/02/22-rdf-syntax-ns#">
   <cc:Work>
    <dc:type rdf:resource="http://purl.org/dc/dcmitype/StillImage"/>
    <dc:date>2025-12-19T18:06:31.826565</dc:date>
    <dc:format>image/svg+xml</dc:format>
    <dc:creator>
     <cc:Agent>
      <dc:title>Matplotlib v3.10.0, https://matplotlib.org/</dc:title>
     </cc:Agent>
    </dc:creator>
   </cc:Work>
  </rdf:RDF>
 </metadata>
 <defs>
  <style type="text/css">*{stroke-linejoin: round; stroke-linecap: butt}</style>
 </defs>
 <g id="figure_1">
  <g id="patch_1">
   <path d="M 0 694.986469 
L 1127.573437 694.986469 
L 1127.573437 0 
L 0 0 
z
" style="fill: #ffffff"/>
  </g>
  <g id="axes_1">
   <g id="patch_2">
    <path d="M 71.593437 549.358594 
L 1120.373437 549.358594 
L 1120.373437 14.038594 
L 71.593437 14.038594 
z
" style="fill: #ffffff"/>
   </g>
   <g id="patch_3">
    <path d="M 119.265256 370.918594 
L 145.749599 370.918594 
L 145.749599 353.074594 
L 119.265256 353.074594 
z
" clip-path="url(#pba81b218cf)" style="fill: #4472c4"/>
   </g>
   <g id="patch_4">
    <path d="M 185.476114 370.918594 
L 211.960458 370.918594 
L 211.960458 263.854594 
L 185.476114 263.854594 
z
" clip-path="url(#pba81b218cf)" style="fill: #4472c4"/>
   </g>
   <g id="patch_5">
    <path d="M 251.686973 370.918594 
L 278.171316 370.918594 
L 278.171316 370.918594 
L 251.686973 370.918594 
z
" clip-path="url(#pba81b218cf)" style="fill: #4472c4"/>
   </g>
   <g id="patch_6">
    <path d="M 317.897831 370.918594 
L 344.382175 370.918594 
L 344.382175 370.918594 
L 317.897831 370.918594 
z
" clip-path="url(#pba81b218cf)" style="fill: #4472c4"/>
   </g>
   <g id="patch_7">
    <path d="M 384.10869 370.918594 
L 410.593033 370.918594 
L 410.593033 357.535594 
L 384.10869 357.535594 
z
" clip-path="url(#pba81b218cf)" style="fill: #4472c4"/>
   </g>
   <g id="patch_8">
    <path d="M 450.319549 370.918594 
L 476.803892 370.918594 
L 476.803892 366.457594 
L 450.319549 366.457594 
z
" clip-path="url(#pba81b218cf)" style="fill: #4472c4"/>
   </g>
   <g id="patch_9">
    <path d="M 516.530407 370.918594 
L 543.014751 370.918594 
L 543.014751 370.918594 
L 516.530407 370.918594 
z
" clip-path="url(#pba81b218cf)" style="fill: #4472c4"/>
   </g>
   <g id="patch_10">
    <path d="M 582.741266 370.918594 
L 609.225609 370.918594 
L 609.225609 370.918594 
L 582.741266 370.918594 
z
" clip-path="url(#pba81b218cf)" style="fill: #4472c4"/>
   </g>
   <g id="patch_11">
    <path d="M 648.952124 370.918594 
L 675.436468 370.918594 
L 675.436468 370.918594 
L 648.952124 370.918594 
z
" clip-path="url(#pba81b218cf)" style="fill: #4472c4"/>
   </g>
   <g id="patch_12">
    <path d="M 715.162983 370.918594 
L 741.647326 370.918594 
L 741.647326 370.918594 
L 715.162983 370.918594 
z
" clip-path="url(#pba81b218cf)" style="fill: #4472c4"/>
   </g>
   <g id="patch_13">
    <path d="M 781.373842 370.918594 
L 807.858185 370.918594 
L 807.858185 370.918594 
L 781.373842 370.918594 
z
" clip-path="url(#pba81b218cf)" style="fill: #4472c4"/>
   </g>
   <g id="patch_14">
    <path d="M 847.5847 370.918594 
L 874.069044 370.918594 
L 874.069044 370.918594 
L 847.5847 370.918594 
z
" clip-path="url(#pba81b218cf)" style="fill: #4472c4"/>
   </g>
   <g id="patch_15">
    <path d="M 913.795559 370.918594 
L 940.279902 370.918594 
L 940.279902 370.918594 
L 913.795559 370.918594 
z
" clip-path="url(#pba81b218cf)" style="fill: #4472c4"/>
   </g>
   <g id="patch_16">
    <path d="M 980.006417 370.918594 
L 1006.490761 370.918594 
L 1006.490761 370.918594 
L 980.006417 370.918594 
z
" clip-path="url(#pba81b218cf)" style="fill: #4472c4"/>
   </g>
   <g id="patch_17">
    <path d="M 1046.217276 370.918594 
L 1072.701619 370.918594 
L 1072.701619 370.918594 
L 1046.217276 370.918594 
z
" clip-path="url(#pba81b218cf)" style="fill: #4472c4"/>
   </g>
   <g id="patch_18">
    <path d="M 119.265256 370.918594 
L 145.749599 370.918594 
L 145.749599 370.918594 
L 119.265256 370.918594 
z
" clip-path="url(#pba81b218cf)" style="fill: #4472c4"/>
   </g>
   <g id="patch_19">
    <path d="M 185.476114 370.918594 
L 211.960458 370.918594 
L 211.960458 370.918594 
L 185.476114 370.918594 
z
" clip-path="url(#pba81b218cf)" style="fill: #4472c4"/>
   </g>
   <g id="patch_20">
    <path d="M 251.686973 370.918594 
L 278.171316 370.918594 
L 278.171316 411.067594 
L 251.686973 411.067594 
z
" clip-path="url(#pba81b218cf)" style="fill: #4472c4"/>
   </g>
   <g id="patch_21">
    <path d="M 317.897831 370.918594 
L 344.382175 370.918594 
L 344.382175 382.517194 
L 317.897831 382.517194 
z
" clip-path="url(#pba81b218cf)" style="fill: #4472c4"/>
   </g>
   <g id="patch_22">
    <path d="M 384.10869 370.918594 
L 410.593033 370.918594 
L 410.593033 370.918594 
L 384.10869 370.918594 
z
" clip-path="url(#pba81b218cf)" style="fill: #4472c4"/>
   </g>
   <g id="patch_23">
    <path d="M 450.319549 370.918594 
L 476.803892 370.918594 
L 476.803892 370.918594 
L 450.319549 370.918594 
z
" clip-path="url(#pba81b218cf)" style="fill: #4472c4"/>
   </g>
   <g id="patch_24">
    <path d="M 516.530407 370.918594 
L 543.014751 370.918594 
L 543.014751 383.409394 
L 516.530407 383.409394 
z
" clip-path="url(#pba81b218cf)" style="fill: #4472c4"/>
   </g>
   <g id="patch_25">
    <path d="M 582.741266 370.918594 
L 609.225609 370.918594 
L 609.225609 388.762594 
L 582.741266 388.762594 
z
" clip-path="url(#pba81b218cf)" style="fill: #4472c4"/>
   </g>
   <g id="patch_26">
    <path d="M 648.952124 370.918594 
L 675.436468 370.918594 
L 675.436468 386.978194 
L 648.952124 386.978194 
z
" clip-path="url(#pba81b218cf)" style="fill: #4472c4"/>
   </g>
   <g id="patch_27">
    <path d="M 715.162983 370.918594 
L 741.647326 370.918594 
L 741.647326 370.918594 
L 715.162983 370.918594 
z
" clip-path="url(#pba81b218cf)" style="fill: #4472c4"/>
   </g>
   <g id="patch_28">
    <path d="M 781.373842 370.918594 
L 807.858185 370.918594 
L 807.858185 395.900194 
L 781.373842 395.900194 
z
" clip-path="url(#pba81b218cf)" style="fill: #4472c4"/>
   </g>
   <g id="patch_29">
    <path d="M 847.5847 370.918594 
L 874.069044 370.918594 
L 874.069044 423.558394 
L 847.5847 423.558394 
z
" clip-path="url(#pba81b218cf)" style="fill: #4472c4"/>
   </g>
   <g id="patch_30">
    <path d="M 913.795559 370.918594 
L 940.279902 370.918594 
L 940.279902 397.684594 
L 913.795559 397.684594 
z
" clip-path="url(#pba81b218cf)" style="fill: #4472c4"/>
   </g>
   <g id="patch_31">
    <path d="M 980.006417 370.918594 
L 1006.490761 370.918594 
L 1006.490761 385.193794 
L 980.006417 385.193794 
z
" clip-path="url(#pba81b218cf)" style="fill: #4472c4"/>
   </g>
   <g id="patch_32">
    <path d="M 1046.217276 370.918594 
L 1072.701619 370.918594 
L 1072.701619 370.918594 
L 1046.217276 370.918594 
z
" clip-path="url(#pba81b218cf)" style="fill: #4472c4"/>
   </g>
   <g id="patch_33">
    <path d="M 119.265256 353.074594 
L 145.749599 353.074594 
L 145.749599 353.074594 
L 119.265256 353.074594 
z
" clip-path="url(#pba81b218cf)" style="fill: #ed7d31"/>
   </g>
   <g id="patch_34">
    <path d="M 185.476114 263.854594 
L 211.960458 263.854594 
L 211.960458 263.854594 
L 185.476114 263.854594 
z
" clip-path="url(#pba81b218cf)" style="fill: #ed7d31"/>
   </g>
   <g id="patch_35">
    <path d="M 251.686973 370.918594 
L 278.171316 370.918594 
L 278.171316 370.918594 
L 251.686973 370.918594 
z
" clip-path="url(#pba81b218cf)" style="fill: #ed7d31"/>
   </g>
   <g id="patch_36">
    <path d="M 317.897831 370.918594 
L 344.382175 370.918594 
L 344.382175 353.074594 
L 317.897831 353.074594 
z
" clip-path="url(#pba81b218cf)" style="fill: #ed7d31"/>
   </g>
   <g id="patch_37">
    <path d="M 384.10869 357.535594 
L 410.593033 357.535594 
L 410.593033 357.535594 
L 384.10869 357.535594 
z
" clip-path="url(#pba81b218cf)" style="fill: #ed7d31"/>
   </g>
   <g id="patch_38">
    <path d="M 450.319549 366.457594 
L 476.803892 366.457594 
L 476.803892 365.565394 
L 450.319549 365.565394 
z
" clip-path="url(#pba81b218cf)" style="fill: #ed7d31"/>
   </g>
   <g id="patch_39">
    <path d="M 516.530407 370.918594 
L 543.014751 370.918594 
L 543.014751 370.918594 
L 516.530407 370.918594 
z
" clip-path="url(#pba81b218cf)" style="fill: #ed7d31"/>
   </g>
   <g id="patch_40">
    <path d="M 582.741266 370.918594 
L 609.225609 370.918594 
L 609.225609 370.918594 
L 582.741266 370.918594 
z
" clip-path="url(#pba81b218cf)" style="fill: #ed7d31"/>
   </g>
   <g id="patch_41">
    <path d="M 648.952124 370.918594 
L 675.436468 370.918594 
L 675.436468 370.918594 
L 648.952124 370.918594 
z
" clip-path="url(#pba81b218cf)" style="fill: #ed7d31"/>
   </g>
   <g id="patch_42">
    <path d="M 715.162983 370.918594 
L 741.647326 370.918594 
L 741.647326 370.918594 
L 715.162983 370.918594 
z
" clip-path="url(#pba81b218cf)" style="fill: #ed7d31"/>
   </g>
   <g id="patch_43">
    <path d="M 781.373842 370.918594 
L 807.858185 370.918594 
L 807.858185 370.918594 
L 781.373842 370.918594 
z
" clip-path="url(#pba81b218cf)" style="fill: #ed7d31"/>
   </g>
   <g id="patch_44">
    <path d="M 847.5847 370.918594 
L 874.069044 370.918594 
L 874.069044 370.918594 
L 847.5847 370.918594 
z
" clip-path="url(#pba81b218cf)" style="fill: #ed7d31"/>
   </g>
   <g id="patch_45">
    <path d="M 913.795559 370.918594 
L 940.279902 370.918594 
L 940.279902 370.918594 
L 913.795559 370.918594 
z
" clip-path="url(#pba81b218cf)" style="fill: #ed7d31"/>
   </g>
   <g id="patch_46">
    <path d="M 980.006417 370.918594 
L 1006.490761 370.918594 
L 1006.490761 370.918594 
L 980.006417 370.918594 
z
" clip-path="url(#pba81b218cf)" style="fill: #ed7d31"/>
   </g>
   <g id="patch_47">
    <path d="M 1046.217276 370.918594 
L 1072.701619 370.918594 
L 1072.701619 370.918594 
L 1046.217276 370.918594 
z
" clip-path="url(#pba81b218cf)" style="fill: #ed7d31"/>
   </g>
   <g id="patch_48">
    <path d="M 119.265256 370.918594 
L 145.749599 370.918594 
L 145.749599 370.918594 
L 119.265256 370.918594 
z
" clip-path="url(#pba81b218cf)" style="fill: #ed7d31"/>
   </g>
   <g id="patch_49">
    <path d="M 185.476114 370.918594 
L 211.960458 370.918594 
L 211.960458 370.918594 
L 185.476114 370.918594 
z
" clip-path="url(#pba81b218cf)" style="fill: #ed7d31"/>
   </g>
   <g id="patch_50">
    <path d="M 251.686973 411.067594 
L 278.171316 411.067594 
L 278.171316 411.067594 
L 251.686973 411.067594 
z
" clip-path="url(#pba81b218cf)" style="fill: #ed7d31"/>
   </g>
   <g id="patch_51">
    <path d="M 317.897831 382.517194 
L 344.382175 382.517194 
L 344.382175 382.517194 
L 317.897831 382.517194 
z
" clip-path="url(#pba81b218cf)" style="fill: #ed7d31"/>
   </g>
   <g id="patch_52">
    <path d="M 384.10869 370.918594 
L 410.593033 370.918594 
L 410.593033 370.918594 
L 384.10869 370.918594 
z
" clip-path="url(#pba81b218cf)" style="fill: #ed7d31"/>
   </g>
   <g id="patch_53">
    <path d="M 450.319549 370.918594 
L 476.803892 370.918594 
L 476.803892 370.918594 
L 450.319549 370.918594 
z
" clip-path="url(#pba81b218cf)" style="fill: #ed7d31"/>
   </g>
   <g id="patch_54">
    <path d="M 516.530407 383.409394 
L 543.014751 383.409394 
L 543.014751 383.409394 
L 516.530407 383.409394 
z
" clip-path="url(#pba81b218cf)" style="fill: #ed7d31"/>
   </g>
   <g id="patch_55">
    <path d="M 582.741266 388.762594 
L 609.225609 388.762594 
L 609.225609 389.654794 
L 582.741266 389.654794 
z
" clip-path="url(#pba81b218cf)" style="fill: #ed7d31"/>
   </g>
   <g id="patch_56">
    <path d="M 648.952124 386.978194 
L 675.436468 386.978194 
L 675.436468 387.870394 
L 648.952124 387.870394 
z
" clip-path="url(#pba81b218cf)" style="fill: #ed7d31"/>
   </g>
   <g id="patch_57">
    <path d="M 715.162983 370.918594 
L 741.647326 370.918594 
L 741.647326 370.918594 
L 715.162983 370.918594 
z
" clip-path="url(#pba81b218cf)" style="fill: #ed7d31"/>
   </g>
   <g id="patch_58">
    <path d="M 781.373842 395.900194 
L 807.858185 395.900194 
L 807.858185 396.346294 
L 781.373842 396.346294 
z
" clip-path="url(#pba81b218cf)" style="fill: #ed7d31"/>
   </g>
   <g id="patch_59">
    <path d="M 847.5847 423.558394 
L 874.069044 423.558394 
L 874.069044 436.049194 
L 847.5847 436.049194 
z
" clip-path="url(#pba81b218cf)" style="fill: #ed7d31"/>
   </g>
   <g id="patch_60">
    <path d="M 913.795559 397.684594 
L 940.279902 397.684594 
L 940.279902 404.822194 
L 913.795559 404.822194 
z
" clip-path="url(#pba81b218cf)" style="fill: #ed7d31"/>
   </g>
   <g id="patch_61">
    <path d="M 980.006417 385.193794 
L 1006.490761 385.193794 
L 1006.490761 395.007994 
L 980.006417 395.007994 
z
" clip-path="url(#pba81b218cf)" style="fill: #ed7d31"/>
   </g>
   <g id="patch_62">
    <path d="M 1046.217276 370.918594 
L 1072.701619 370.918594 
L 1072.701619 380.732794 
L 1046.217276 380.732794 
z
" clip-path="url(#pba81b218cf)" style="fill: #ed7d31"/>
   </g>
   <g id="patch_63">
    <path d="M 119.265256 353.074594 
L 145.749599 353.074594 
L 145.749599 312.925594 
L 119.265256 312.925594 
z
" clip-path="url(#pba81b218cf)" style="fill: #a5a5a5"/>
   </g>
   <g id="patch_64">
    <path d="M 185.476114 263.854594 
L 211.960458 263.854594 
L 211.960458 183.556594 
L 185.476114 183.556594 
z
" clip-path="url(#pba81b218cf)" style="fill: #a5a5a5"/>
   </g>
   <g id="patch_65">
    <path d="M 251.686973 370.918594 
L 278.171316 370.918594 
L 278.171316 253.148194 
L 251.686973 253.148194 
z
" clip-path="url(#pba81b218cf)" style="fill: #a5a5a5"/>
   </g>
   <g id="patch_66">
    <path d="M 317.897831 353.074594 
L 344.382175 353.074594 
L 344.382175 326.308594 
L 317.897831 326.308594 
z
" clip-path="url(#pba81b218cf)" style="fill: #a5a5a5"/>
   </g>
   <g id="patch_67">
    <path d="M 384.10869 357.535594 
L 410.593033 357.535594 
L 410.593033 321.847594 
L 384.10869 321.847594 
z
" clip-path="url(#pba81b218cf)" style="fill: #a5a5a5"/>
   </g>
   <g id="patch_68">
    <path d="M 450.319549 365.565394 
L 476.803892 365.565394 
L 476.803892 325.416394 
L 450.319549 325.416394 
z
" clip-path="url(#pba81b218cf)" style="fill: #a5a5a5"/>
   </g>
   <g id="patch_69">
    <path d="M 516.530407 370.918594 
L 543.014751 370.918594 
L 543.014751 308.464594 
L 516.530407 308.464594 
z
" clip-path="url(#pba81b218cf)" style="fill: #a5a5a5"/>
   </g>
   <g id="patch_70">
    <path d="M 582.741266 370.918594 
L 609.225609 370.918594 
L 609.225609 283.482994 
L 582.741266 283.482994 
z
" clip-path="url(#pba81b218cf)" style="fill: #a5a5a5"/>
   </g>
   <g id="patch_71">
    <path d="M 648.952124 370.918594 
L 675.436468 370.918594 
L 675.436468 281.698594 
L 648.952124 281.698594 
z
" clip-path="url(#pba81b218cf)" style="fill: #a5a5a5"/>
   </g>
   <g id="patch_72">
    <path d="M 715.162983 370.918594 
L 741.647326 370.918594 
L 741.647326 326.308594 
L 715.162983 326.308594 
z
" clip-path="url(#pba81b218cf)" style="fill: #a5a5a5"/>
   </g>
   <g id="patch_73">
    <path d="M 781.373842 370.918594 
L 807.858185 370.918594 
L 807.858185 332.553994 
L 781.373842 332.553994 
z
" clip-path="url(#pba81b218cf)" style="fill: #a5a5a5"/>
   </g>
   <g id="patch_74">
    <path d="M 847.5847 370.918594 
L 874.069044 370.918594 
L 874.069044 308.464594 
L 847.5847 308.464594 
z
" clip-path="url(#pba81b218cf)" style="fill: #a5a5a5"/>
   </g>
   <g id="patch_75">
    <path d="M 913.795559 370.918594 
L 940.279902 370.918594 
L 940.279902 268.315594 
L 913.795559 268.315594 
z
" clip-path="url(#pba81b218cf)" style="fill: #a5a5a5"/>
   </g>
   <g id="patch_76">
    <path d="M 980.006417 370.918594 
L 1006.490761 370.918594 
L 1006.490761 306.680194 
L 980.006417 306.680194 
z
" clip-path="url(#pba81b218cf)" style="fill: #a5a5a5"/>
   </g>
   <g id="patch_77">
    <path d="M 1046.217276 370.918594 
L 1072.701619 370.918594 
L 1072.701619 324.524194 
L 1046.217276 324.524194 
z
" clip-path="url(#pba81b218cf)" style="fill: #a5a5a5"/>
   </g>
   <g id="patch_78">
    <path d="M 119.265256 370.918594 
L 145.749599 370.918594 
L 145.749599 370.918594 
L 119.265256 370.918594 
z
" clip-path="url(#pba81b218cf)" style="fill: #a5a5a5"/>
   </g>
   <g id="patch_79">
    <path d="M 185.476114 370.918594 
L 211.960458 370.918594 
L 211.960458 370.918594 
L 185.476114 370.918594 
z
" clip-path="url(#pba81b218cf)" style="fill: #a5a5a5"/>
   </g>
   <g id="patch_80">
    <path d="M 251.686973 411.067594 
L 278.171316 411.067594 
L 278.171316 411.067594 
L 251.686973 411.067594 
z
" clip-path="url(#pba81b218cf)" style="fill: #a5a5a5"/>
   </g>
   <g id="patch_81">
    <path d="M 317.897831 382.517194 
L 344.382175 382.517194 
L 344.382175 382.517194 
L 317.897831 382.517194 
z
" clip-path="url(#pba81b218cf)" style="fill: #a5a5a5"/>
   </g>
   <g id="patch_82">
    <path d="M 384.10869 370.918594 
L 410.593033 370.918594 
L 410.593033 370.918594 
L 384.10869 370.918594 
z
" clip-path="url(#pba81b218cf)" style="fill: #a5a5a5"/>
   </g>
   <g id="patch_83">
    <path d="M 450.319549 370.918594 
L 476.803892 370.918594 
L 476.803892 370.918594 
L 450.319549 370.918594 
z
" clip-path="url(#pba81b218cf)" style="fill: #a5a5a5"/>
   </g>
   <g id="patch_84">
    <path d="M 516.530407 383.409394 
L 543.014751 383.409394 
L 543.014751 383.409394 
L 516.530407 383.409394 
z
" clip-path="url(#pba81b218cf)" style="fill: #a5a5a5"/>
   </g>
   <g id="patch_85">
    <path d="M 582.741266 389.654794 
L 609.225609 389.654794 
L 609.225609 389.654794 
L 582.741266 389.654794 
z
" clip-path="url(#pba81b218cf)" style="fill: #a5a5a5"/>
   </g>
   <g id="patch_86">
    <path d="M 648.952124 387.870394 
L 675.436468 387.870394 
L 675.436468 387.870394 
L 648.952124 387.870394 
z
" clip-path="url(#pba81b218cf)" style="fill: #a5a5a5"/>
   </g>
   <g id="patch_87">
    <path d="M 715.162983 370.918594 
L 741.647326 370.918594 
L 741.647326 370.918594 
L 715.162983 370.918594 
z
" clip-path="url(#pba81b218cf)" style="fill: #a5a5a5"/>
   </g>
   <g id="patch_88">
    <path d="M 781.373842 396.346294 
L 807.858185 396.346294 
L 807.858185 396.346294 
L 781.373842 396.346294 
z
" clip-path="url(#pba81b218cf)" style="fill: #a5a5a5"/>
   </g>
   <g id="patch_89">
    <path d="M 847.5847 436.049194 
L 874.069044 436.049194 
L 874.069044 436.049194 
L 847.5847 436.049194 
z
" clip-path="url(#pba81b218cf)" style="fill: #a5a5a5"/>
   </g>
   <g id="patch_90">
    <path d="M 913.795559 404.822194 
L 940.279902 404.822194 
L 940.279902 404.822194 
L 913.795559 404.822194 
z
" clip-path="url(#pba81b218cf)" style="fill: #a5a5a5"/>
   </g>
   <g id="patch_91">
    <path d="M 980.006417 395.007994 
L 1006.490761 395.007994 
L 1006.490761 395.007994 
L 980.006417 395.007994 
z
" clip-path="url(#pba81b218cf)" style="fill: #a5a5a5"/>
   </g>
   <g id="patch_92">
    <path d="M 1046.217276 380.732794 
L 1072.701619 380.732794 
L 1072.701619 380.732794 
L 1046.217276 380.732794 
z
" clip-path="url(#pba81b218cf)" style="fill: #a5a5a5"/>
   </g>
   <g id="patch_93">
    <path d="M 119.265256 312.925594 
L 145.749599 312.925594 
L 145.749599 312.925594 
L 119.265256 312.925594 
z
" clip-path="url(#pba81b218cf)" style="fill: #ffc000"/>
   </g>
   <g id="patch_94">
    <path d="M 185.476114 183.556594 
L 211.960458 183.556594 
L 211.960458 183.556594 
L 185.476114 183.556594 
z
" clip-path="url(#pba81b218cf)" style="fill: #ffc000"/>
   </g>
   <g id="patch_95">
    <path d="M 251.686973 253.148194 
L 278.171316 253.148194 
L 278.171316 253.148194 
L 251.686973 253.148194 
z
" clip-path="url(#pba81b218cf)" style="fill: #ffc000"/>
   </g>
   <g id="patch_96">
    <path d="M 317.897831 326.308594 
L 344.382175 326.308594 
L 344.382175 326.308594 
L 317.897831 326.308594 
z
" clip-path="url(#pba81b218cf)" style="fill: #ffc000"/>
   </g>
   <g id="patch_97">
    <path d="M 384.10869 321.847594 
L 410.593033 321.847594 
L 410.593033 321.847594 
L 384.10869 321.847594 
z
" clip-path="url(#pba81b218cf)" style="fill: #ffc000"/>
   </g>
   <g id="patch_98">
    <path d="M 450.319549 325.416394 
L 476.803892 325.416394 
L 476.803892 324.524194 
L 450.319549 324.524194 
z
" clip-path="url(#pba81b218cf)" style="fill: #ffc000"/>
   </g>
   <g id="patch_99">
    <path d="M 516.530407 308.464594 
L 543.014751 308.464594 
L 543.014751 270.992194 
L 516.530407 270.992194 
z
" clip-path="url(#pba81b218cf)" style="fill: #ffc000"/>
   </g>
   <g id="patch_100">
    <path d="M 582.741266 283.482994 
L 609.225609 283.482994 
L 609.225609 283.482994 
L 582.741266 283.482994 
z
" clip-path="url(#pba81b218cf)" style="fill: #ffc000"/>
   </g>
   <g id="patch_101">
    <path d="M 648.952124 281.698594 
L 675.436468 281.698594 
L 675.436468 281.698594 
L 648.952124 281.698594 
z
" clip-path="url(#pba81b218cf)" style="fill: #ffc000"/>
   </g>
   <g id="patch_102">
    <path d="M 715.162983 326.308594 
L 741.647326 326.308594 
L 741.647326 245.118394 
L 715.162983 245.118394 
z
" clip-path="url(#pba81b218cf)" style="fill: #ffc000"/>
   </g>
   <g id="patch_103">
    <path d="M 781.373842 332.553994 
L 807.858185 332.553994 
L 807.858185 325.416394 
L 781.373842 325.416394 
z
" clip-path="url(#pba81b218cf)" style="fill: #ffc000"/>
   </g>
   <g id="patch_104">
    <path d="M 847.5847 308.464594 
L 874.069044 308.464594 
L 874.069044 308.464594 
L 847.5847 308.464594 
z
" clip-path="url(#pba81b218cf)" style="fill: #ffc000"/>
   </g>
   <g id="patch_105">
    <path d="M 913.795559 268.315594 
L 940.279902 268.315594 
L 940.279902 268.315594 
L 913.795559 268.315594 
z
" clip-path="url(#pba81b218cf)" style="fill: #ffc000"/>
   </g>
   <g id="patch_106">
    <path d="M 980.006417 306.680194 
L 1006.490761 306.680194 
L 1006.490761 306.680194 
L 980.006417 306.680194 
z
" clip-path="url(#pba81b218cf)" style="fill: #ffc000"/>
   </g>
   <g id="patch_107">
    <path d="M 1046.217276 324.524194 
L 1072.701619 324.524194 
L 1072.701619 242.441794 
L 1046.217276 242.441794 
z
" clip-path="url(#pba81b218cf)" style="fill: #ffc000"/>
   </g>
   <g id="patch_108">
    <path d="M 119.265256 370.918594 
L 145.749599 370.918594 
L 145.749599 421.773994 
L 119.265256 421.773994 
z
" clip-path="url(#pba81b218cf)" style="fill: #ffc000"/>
   </g>
   <g id="patch_109">
    <path d="M 185.476114 370.918594 
L 211.960458 370.918594 
L 211.960458 426.234994 
L 185.476114 426.234994 
z
" clip-path="url(#pba81b218cf)" style="fill: #ffc000"/>
   </g>
   <g id="patch_110">
    <path d="M 251.686973 411.067594 
L 278.171316 411.067594 
L 278.171316 421.773994 
L 251.686973 421.773994 
z
" clip-path="url(#pba81b218cf)" style="fill: #ffc000"/>
   </g>
   <g id="patch_111">
    <path d="M 317.897831 382.517194 
L 344.382175 382.517194 
L 344.382175 425.342794 
L 317.897831 425.342794 
z
" clip-path="url(#pba81b218cf)" style="fill: #ffc000"/>
   </g>
   <g id="patch_112">
    <path d="M 384.10869 370.918594 
L 410.593033 370.918594 
L 410.593033 401.253394 
L 384.10869 401.253394 
z
" clip-path="url(#pba81b218cf)" style="fill: #ffc000"/>
   </g>
   <g id="patch_113">
    <path d="M 450.319549 370.918594 
L 476.803892 370.918594 
L 476.803892 370.918594 
L 450.319549 370.918594 
z
" clip-path="url(#pba81b218cf)" style="fill: #ffc000"/>
   </g>
   <g id="patch_114">
    <path d="M 516.530407 383.409394 
L 543.014751 383.409394 
L 543.014751 383.409394 
L 516.530407 383.409394 
z
" clip-path="url(#pba81b218cf)" style="fill: #ffc000"/>
   </g>
   <g id="patch_115">
    <path d="M 582.741266 389.654794 
L 609.225609 389.654794 
L 609.225609 406.606594 
L 582.741266 406.606594 
z
" clip-path="url(#pba81b218cf)" style="fill: #ffc000"/>
   </g>
   <g id="patch_116">
    <path d="M 648.952124 387.870394 
L 675.436468 387.870394 
L 675.436468 400.361194 
L 648.952124 400.361194 
z
" clip-path="url(#pba81b218cf)" style="fill: #ffc000"/>
   </g>
   <g id="patch_117">
    <path d="M 715.162983 370.918594 
L 741.647326 370.918594 
L 741.647326 370.918594 
L 715.162983 370.918594 
z
" clip-path="url(#pba81b218cf)" style="fill: #ffc000"/>
   </g>
   <g id="patch_118">
    <path d="M 781.373842 396.346294 
L 807.858185 396.346294 
L 807.858185 396.346294 
L 781.373842 396.346294 
z
" clip-path="url(#pba81b218cf)" style="fill: #ffc000"/>
   </g>
   <g id="patch_119">
    <path d="M 847.5847 436.049194 
L 874.069044 436.049194 
L 874.069044 445.863394 
L 847.5847 445.863394 
z
" clip-path="url(#pba81b218cf)" style="fill: #ffc000"/>
   </g>
   <g id="patch_120">
    <path d="M 913.795559 404.822194 
L 940.279902 404.822194 
L 940.279902 511.886194 
L 913.795559 511.886194 
z
" clip-path="url(#pba81b218cf)" style="fill: #ffc000"/>
   </g>
   <g id="patch_121">
    <path d="M 980.006417 395.007994 
L 1006.490761 395.007994 
L 1006.490761 459.246394 
L 980.006417 459.246394 
z
" clip-path="url(#pba81b218cf)" style="fill: #ffc000"/>
   </g>
   <g id="patch_122">
    <path d="M 1046.217276 380.732794 
L 1072.701619 380.732794 
L 1072.701619 380.732794 
L 1046.217276 380.732794 
z
" clip-path="url(#pba81b218cf)" style="fill: #ffc000"/>
   </g>
   <g id="patch_123">
    <path d="M 119.265256 312.925594 
L 145.749599 312.925594 
L 145.749599 308.464594 
L 119.265256 308.464594 
z
" clip-path="url(#pba81b218cf)" style="fill: #5b9bd5"/>
   </g>
   <g id="patch_124">
    <path d="M 185.476114 183.556594 
L 211.960458 183.556594 
L 211.960458 165.712594 
L 185.476114 165.712594 
z
" clip-path="url(#pba81b218cf)" style="fill: #5b9bd5"/>
   </g>
   <g id="patch_125">
    <path d="M 251.686973 253.148194 
L 278.171316 253.148194 
L 278.171316 248.687194 
L 251.686973 248.687194 
z
" clip-path="url(#pba81b218cf)" style="fill: #5b9bd5"/>
   </g>
   <g id="patch_126">
    <path d="M 317.897831 326.308594 
L 344.382175 326.308594 
L 344.382175 320.063194 
L 317.897831 320.063194 
z
" clip-path="url(#pba81b218cf)" style="fill: #5b9bd5"/>
   </g>
   <g id="patch_127">
    <path d="M 384.10869 321.847594 
L 410.593033 321.847594 
L 410.593033 304.003594 
L 384.10869 304.003594 
z
" clip-path="url(#pba81b218cf)" style="fill: #5b9bd5"/>
   </g>
   <g id="patch_128">
    <path d="M 450.319549 324.524194 
L 476.803892 324.524194 
L 476.803892 306.680194 
L 450.319549 306.680194 
z
" clip-path="url(#pba81b218cf)" style="fill: #5b9bd5"/>
   </g>
   <g id="patch_129">
    <path d="M 516.530407 270.992194 
L 543.014751 270.992194 
L 543.014751 262.070194 
L 516.530407 262.070194 
z
" clip-path="url(#pba81b218cf)" style="fill: #5b9bd5"/>
   </g>
   <g id="patch_130">
    <path d="M 582.741266 283.482994 
L 609.225609 283.482994 
L 609.225609 261.177994 
L 582.741266 261.177994 
z
" clip-path="url(#pba81b218cf)" style="fill: #5b9bd5"/>
   </g>
   <g id="patch_131">
    <path d="M 648.952124 281.698594 
L 675.436468 281.698594 
L 675.436468 268.315594 
L 648.952124 268.315594 
z
" clip-path="url(#pba81b218cf)" style="fill: #5b9bd5"/>
   </g>
   <g id="patch_132">
    <path d="M 715.162983 245.118394 
L 741.647326 245.118394 
L 741.647326 244.226194 
L 715.162983 244.226194 
z
" clip-path="url(#pba81b218cf)" style="fill: #5b9bd5"/>
   </g>
   <g id="patch_133">
    <path d="M 781.373842 325.416394 
L 807.858185 325.416394 
L 807.858185 301.326994 
L 781.373842 301.326994 
z
" clip-path="url(#pba81b218cf)" style="fill: #5b9bd5"/>
   </g>
   <g id="patch_134">
    <path d="M 847.5847 308.464594 
L 874.069044 308.464594 
L 874.069044 290.620594 
L 847.5847 290.620594 
z
" clip-path="url(#pba81b218cf)" style="fill: #5b9bd5"/>
   </g>
   <g id="patch_135">
    <path d="M 913.795559 268.315594 
L 940.279902 268.315594 
L 940.279902 254.040394 
L 913.795559 254.040394 
z
" clip-path="url(#pba81b218cf)" style="fill: #5b9bd5"/>
   </g>
   <g id="patch_136">
    <path d="M 980.006417 306.680194 
L 1006.490761 306.680194 
L 1006.490761 297.758194 
L 980.006417 297.758194 
z
" clip-path="url(#pba81b218cf)" style="fill: #5b9bd5"/>
   </g>
   <g id="patch_137">
    <path d="M 1046.217276 242.441794 
L 1072.701619 242.441794 
L 1072.701619 215.675794 
L 1046.217276 215.675794 
z
" clip-path="url(#pba81b218cf)" style="fill: #5b9bd5"/>
   </g>
   <g id="patch_138">
    <path d="M 119.265256 421.773994 
L 145.749599 421.773994 
L 145.749599 421.773994 
L 119.265256 421.773994 
z
" clip-path="url(#pba81b218cf)" style="fill: #5b9bd5"/>
   </g>
   <g id="patch_139">
    <path d="M 185.476114 426.234994 
L 211.960458 426.234994 
L 211.960458 426.234994 
L 185.476114 426.234994 
z
" clip-path="url(#pba81b218cf)" style="fill: #5b9bd5"/>
   </g>
   <g id="patch_140">
    <path d="M 251.686973 421.773994 
L 278.171316 421.773994 
L 278.171316 421.773994 
L 251.686973 421.773994 
z
" clip-path="url(#pba81b218cf)" style="fill: #5b9bd5"/>
   </g>
   <g id="patch_141">
    <path d="M 317.897831 425.342794 
L 344.382175 425.342794 
L 344.382175 425.342794 
L 317.897831 425.342794 
z
" clip-path="url(#pba81b218cf)" style="fill: #5b9bd5"/>
   </g>
   <g id="patch_142">
    <path d="M 384.10869 401.253394 
L 410.593033 401.253394 
L 410.593033 401.253394 
L 384.10869 401.253394 
z
" clip-path="url(#pba81b218cf)" style="fill: #5b9bd5"/>
   </g>
   <g id="patch_143">
    <path d="M 450.319549 370.918594 
L 476.803892 370.918594 
L 476.803892 370.918594 
L 450.319549 370.918594 
z
" clip-path="url(#pba81b218cf)" style="fill: #5b9bd5"/>
   </g>
   <g id="patch_144">
    <path d="M 516.530407 383.409394 
L 543.014751 383.409394 
L 543.014751 383.409394 
L 516.530407 383.409394 
z
" clip-path="url(#pba81b218cf)" style="fill: #5b9bd5"/>
   </g>
   <g id="patch_145">
    <path d="M 582.741266 406.606594 
L 609.225609 406.606594 
L 609.225609 406.606594 
L 582.741266 406.606594 
z
" clip-path="url(#pba81b218cf)" style="fill: #5b9bd5"/>
   </g>
   <g id="patch_146">
    <path d="M 648.952124 400.361194 
L 675.436468 400.361194 
L 675.436468 400.361194 
L 648.952124 400.361194 
z
" clip-path="url(#pba81b218cf)" style="fill: #5b9bd5"/>
   </g>
   <g id="patch_147">
    <path d="M 715.162983 370.918594 
L 741.647326 370.918594 
L 741.647326 370.918594 
L 715.162983 370.918594 
z
" clip-path="url(#pba81b218cf)" style="fill: #5b9bd5"/>
   </g>
   <g id="patch_148">
    <path d="M 781.373842 396.346294 
L 807.858185 396.346294 
L 807.858185 396.346294 
L 781.373842 396.346294 
z
" clip-path="url(#pba81b218cf)" style="fill: #5b9bd5"/>
   </g>
   <g id="patch_149">
    <path d="M 847.5847 445.863394 
L 874.069044 445.863394 
L 874.069044 445.863394 
L 847.5847 445.863394 
z
" clip-path="url(#pba81b218cf)" style="fill: #5b9bd5"/>
   </g>
   <g id="patch_150">
    <path d="M 913.795559 511.886194 
L 940.279902 511.886194 
L 940.279902 511.886194 
L 913.795559 511.886194 
z
" clip-path="url(#pba81b218cf)" style="fill: #5b9bd5"/>
   </g>
   <g id="patch_151">
    <path d="M 980.006417 459.246394 
L 1006.490761 459.246394 
L 1006.490761 459.246394 
L 980.006417 459.246394 
z
" clip-path="url(#pba81b218cf)" style="fill: #5b9bd5"/>
   </g>
   <g id="patch_152">
    <path d="M 1046.217276 380.732794 
L 1072.701619 380.732794 
L 1072.701619 380.732794 
L 1046.217276 380.732794 
z
" clip-path="url(#pba81b218cf)" style="fill: #5b9bd5"/>
   </g>
   <g id="patch_153">
    <path d="M 119.265256 308.464594 
L 145.749599 308.464594 
L 145.749599 192.478594 
L 119.265256 192.478594 
z
" clip-path="url(#pba81b218cf)" style="fill: #70ad47"/>
   </g>
   <g id="patch_154">
    <path d="M 185.476114 165.712594 
L 211.960458 165.712594 
L 211.960458 72.031594 
L 185.476114 72.031594 
z
" clip-path="url(#pba81b218cf)" style="fill: #70ad47"/>
   </g>
   <g id="patch_155">
    <path d="M 251.686973 248.687194 
L 278.171316 248.687194 
L 278.171316 123.779194 
L 251.686973 123.779194 
z
" clip-path="url(#pba81b218cf)" style="fill: #70ad47"/>
   </g>
   <g id="patch_156">
    <path d="M 317.897831 320.063194 
L 344.382175 320.063194 
L 344.382175 270.099994 
L 317.897831 270.099994 
z
" clip-path="url(#pba81b218cf)" style="fill: #70ad47"/>
   </g>
   <g id="patch_157">
    <path d="M 384.10869 304.003594 
L 410.593033 304.003594 
L 410.593033 214.783594 
L 384.10869 214.783594 
z
" clip-path="url(#pba81b218cf)" style="fill: #70ad47"/>
   </g>
   <g id="patch_158">
    <path d="M 450.319549 306.680194 
L 476.803892 306.680194 
L 476.803892 204.077194 
L 450.319549 204.077194 
z
" clip-path="url(#pba81b218cf)" style="fill: #70ad47"/>
   </g>
   <g id="patch_159">
    <path d="M 516.530407 262.070194 
L 543.014751 262.070194 
L 543.014751 150.545194 
L 516.530407 150.545194 
z
" clip-path="url(#pba81b218cf)" style="fill: #70ad47"/>
   </g>
   <g id="patch_160">
    <path d="M 582.741266 261.177994 
L 609.225609 261.177994 
L 609.225609 176.418994 
L 582.741266 176.418994 
z
" clip-path="url(#pba81b218cf)" style="fill: #70ad47"/>
   </g>
   <g id="patch_161">
    <path d="M 648.952124 268.315594 
L 675.436468 268.315594 
L 675.436468 161.251594 
L 648.952124 161.251594 
z
" clip-path="url(#pba81b218cf)" style="fill: #70ad47"/>
   </g>
   <g id="patch_162">
    <path d="M 715.162983 244.226194 
L 741.647326 244.226194 
L 741.647326 146.084194 
L 715.162983 146.084194 
z
" clip-path="url(#pba81b218cf)" style="fill: #70ad47"/>
   </g>
   <g id="patch_163">
    <path d="M 781.373842 301.326994 
L 807.858185 301.326994 
L 807.858185 229.950994 
L 781.373842 229.950994 
z
" clip-path="url(#pba81b218cf)" style="fill: #70ad47"/>
   </g>
   <g id="patch_164">
    <path d="M 847.5847 290.620594 
L 874.069044 290.620594 
L 874.069044 180.879994 
L 847.5847 180.879994 
z
" clip-path="url(#pba81b218cf)" style="fill: #70ad47"/>
   </g>
   <g id="patch_165">
    <path d="M 913.795559 254.040394 
L 940.279902 254.040394 
L 940.279902 187.125394 
L 913.795559 187.125394 
z
" clip-path="url(#pba81b218cf)" style="fill: #70ad47"/>
   </g>
   <g id="patch_166">
    <path d="M 980.006417 297.758194 
L 1006.490761 297.758194 
L 1006.490761 190.694194 
L 980.006417 190.694194 
z
" clip-path="url(#pba81b218cf)" style="fill: #70ad47"/>
   </g>
   <g id="patch_167">
    <path d="M 1046.217276 215.675794 
L 1072.701619 215.675794 
L 1072.701619 108.611794 
L 1046.217276 108.611794 
z
" clip-path="url(#pba81b218cf)" style="fill: #70ad47"/>
   </g>
   <g id="patch_168">
    <path d="M 119.265256 421.773994 
L 145.749599 421.773994 
L 145.749599 421.773994 
L 119.265256 421.773994 
z
" clip-path="url(#pba81b218cf)" style="fill: #70ad47"/>
   </g>
   <g id="patch_169">
    <path d="M 185.476114 426.234994 
L 211.960458 426.234994 
L 211.960458 426.234994 
L 185.476114 426.234994 
z
" clip-path="url(#pba81b218cf)" style="fill: #70ad47"/>
   </g>
   <g id="patch_170">
    <path d="M 251.686973 421.773994 
L 278.171316 421.773994 
L 278.171316 421.773994 
L 251.686973 421.773994 
z
" clip-path="url(#pba81b218cf)" style="fill: #70ad47"/>
   </g>
   <g id="patch_171">
    <path d="M 317.897831 425.342794 
L 344.382175 425.342794 
L 344.382175 425.342794 
L 317.897831 425.342794 
z
" clip-path="url(#pba81b218cf)" style="fill: #70ad47"/>
   </g>
   <g id="patch_172">
    <path d="M 384.10869 401.253394 
L 410.593033 401.253394 
L 410.593033 401.253394 
L 384.10869 401.253394 
z
" clip-path="url(#pba81b218cf)" style="fill: #70ad47"/>
   </g>
   <g id="patch_173">
    <path d="M 450.319549 370.918594 
L 476.803892 370.918594 
L 476.803892 370.918594 
L 450.319549 370.918594 
z
" clip-path="url(#pba81b218cf)" style="fill: #70ad47"/>
   </g>
   <g id="patch_174">
    <path d="M 516.530407 383.409394 
L 543.014751 383.409394 
L 543.014751 383.409394 
L 516.530407 383.409394 
z
" clip-path="url(#pba81b218cf)" style="fill: #70ad47"/>
   </g>
   <g id="patch_175">
    <path d="M 582.741266 406.606594 
L 609.225609 406.606594 
L 609.225609 406.606594 
L 582.741266 406.606594 
z
" clip-path="url(#pba81b218cf)" style="fill: #70ad47"/>
   </g>
   <g id="patch_176">
    <path d="M 648.952124 400.361194 
L 675.436468 400.361194 
L 675.436468 400.361194 
L 648.952124 400.361194 
z
" clip-path="url(#pba81b218cf)" style="fill: #70ad47"/>
   </g>
   <g id="patch_177">
    <path d="M 715.162983 370.918594 
L 741.647326 370.918594 
L 741.647326 370.918594 
L 715.162983 370.918594 
z
" clip-path="url(#pba81b218cf)" style="fill: #70ad47"/>
   </g>
   <g id="patch_178">
    <path d="M 781.373842 396.346294 
L 807.858185 396.346294 
L 807.858185 396.346294 
L 781.373842 396.346294 
z
" clip-path="url(#pba81b218cf)" style="fill: #70ad47"/>
   </g>
   <g id="patch_179">
    <path d="M 847.5847 445.863394 
L 874.069044 445.863394 
L 874.069044 445.863394 
L 847.5847 445.863394 
z
" clip-path="url(#pba81b218cf)" style="fill: #70ad47"/>
   </g>
   <g id="patch_180">
    <path d="M 913.795559 511.886194 
L 940.279902 511.886194 
L 940.279902 511.886194 
L 913.795559 511.886194 
z
" clip-path="url(#pba81b218cf)" style="fill: #70ad47"/>
   </g>
   <g id="patch_181">
    <path d="M 980.006417 459.246394 
L 1006.490761 459.246394 
L 1006.490761 459.246394 
L 980.006417 459.246394 
z
" clip-path="url(#pba81b218cf)" style="fill: #70ad47"/>
   </g>
   <g id="patch_182">
    <path d="M 1046.217276 380.732794 
L 1072.701619 380.732794 
L 1072.701619 380.732794 
L 1046.217276 380.732794 
z
" clip-path="url(#pba81b218cf)" style="fill: #70ad47"/>
   </g>
   <g id="matplotlib.axis_1">
    <g id="xtick_1">
     <g id="line2d_1"/>
     <g id="text_1">
      <!-- 2005-2006 -->
      <g transform="translate(60.483298 453.734605) rotate(-45) scale(0.18 -0.18)">
       <defs>
        <path id="DejaVuSans-32" d="M 1228 531 
L 3431 531 
L 3431 0 
L 469 0 
L 469 531 
Q 828 903 1448 1529 
Q 2069 2156 2228 2338 
Q 2531 2678 2651 2914 
Q 2772 3150 2772 3378 
Q 2772 3750 2511 3984 
Q 2250 4219 1831 4219 
Q 1534 4219 1204 4116 
Q 875 4013 500 3803 
L 500 4441 
Q 881 4594 1212 4672 
Q 1544 4750 1819 4750 
Q 2544 4750 2975 4387 
Q 3406 4025 3406 3419 
Q 3406 3131 3298 2873 
Q 3191 2616 2906 2266 
Q 2828 2175 2409 1742 
Q 1991 1309 1228 531 
z
" transform="scale(0.015625)"/>
        <path id="DejaVuSans-30" d="M 2034 4250 
Q 1547 4250 1301 3770 
Q 1056 3291 1056 2328 
Q 1056 1369 1301 889 
Q 1547 409 2034 409 
Q 2525 409 2770 889 
Q 3016 1369 3016 2328 
Q 3016 3291 2770 3770 
Q 2525 4250 2034 4250 
z
M 2034 4750 
Q 2819 4750 3233 4129 
Q 3647 3509 3647 2328 
Q 3647 1150 3233 529 
Q 2819 -91 2034 -91 
Q 1250 -91 836 529 
Q 422 1150 422 2328 
Q 422 3509 836 4129 
Q 1250 4750 2034 4750 
z
" transform="scale(0.015625)"/>
        <path id="DejaVuSans-35" d="M 691 4666 
L 3169 4666 
L 3169 4134 
L 1269 4134 
L 1269 2991 
Q 1406 3038 1543 3061 
Q 1681 3084 1819 3084 
Q 2600 3084 3056 2656 
Q 3513 2228 3513 1497 
Q 3513 744 3044 326 
Q 2575 -91 1722 -91 
Q 1428 -91 1123 -41 
Q 819 9 494 109 
L 494 744 
Q 775 591 1075 516 
Q 1375 441 1709 441 
Q 2250 441 2565 725 
Q 2881 1009 2881 1497 
Q 2881 1984 2565 2268 
Q 2250 2553 1709 2553 
Q 1456 2553 1204 2497 
Q 953 2441 691 2322 
L 691 4666 
z
" transform="scale(0.015625)"/>
        <path id="DejaVuSans-2d" d="M 313 2009 
L 1997 2009 
L 1997 1497 
L 313 1497 
L 313 2009 
z
" transform="scale(0.015625)"/>
        <path id="DejaVuSans-36" d="M 2113 2584 
Q 1688 2584 1439 2293 
Q 1191 2003 1191 1497 
Q 1191 994 1439 701 
Q 1688 409 2113 409 
Q 2538 409 2786 701 
Q 3034 994 3034 1497 
Q 3034 2003 2786 2293 
Q 2538 2584 2113 2584 
z
M 3366 4563 
L 3366 3988 
Q 3128 4100 2886 4159 
Q 2644 4219 2406 4219 
Q 1781 4219 1451 3797 
Q 1122 3375 1075 2522 
Q 1259 2794 1537 2939 
Q 1816 3084 2150 3084 
Q 2853 3084 3261 2657 
Q 3669 2231 3669 1497 
Q 3669 778 3244 343 
Q 2819 -91 2113 -91 
Q 1303 -91 875 529 
Q 447 1150 447 2328 
Q 447 3434 972 4092 
Q 1497 4750 2381 4750 
Q 2619 4750 2861 4703 
Q 3103 4656 3366 4563 
z
" transform="scale(0.015625)"/>
       </defs>
       <use xlink:href="#DejaVuSans-32"/>
       <use xlink:href="#DejaVuSans-30" transform="translate(63.623047 0)"/>
       <use xlink:href="#DejaVuSans-30" transform="translate(127.246094 0)"/>
       <use xlink:href="#DejaVuSans-35" transform="translate(190.869141 0)"/>
       <use xlink:href="#DejaVuSans-2d" transform="translate(254.492188 0)"/>
       <use xlink:href="#DejaVuSans-32" transform="translate(290.576172 0)"/>
       <use xlink:href="#DejaVuSans-30" transform="translate(354.199219 0)"/>
       <use xlink:href="#DejaVuSans-30" transform="translate(417.822266 0)"/>
       <use xlink:href="#DejaVuSans-36" transform="translate(481.445312 0)"/>
      </g>
     </g>
    </g>
    <g id="xtick_2">
     <g id="line2d_2"/>
     <g id="text_2">
      <!-- 2006-2007 -->
      <g transform="translate(126.694157 453.734605) rotate(-45) scale(0.18 -0.18)">
       <defs>
        <path id="DejaVuSans-37" d="M 525 4666 
L 3525 4666 
L 3525 4397 
L 1831 0 
L 1172 0 
L 2766 4134 
L 525 4134 
L 525 4666 
z
" transform="scale(0.015625)"/>
       </defs>
       <use xlink:href="#DejaVuSans-32"/>
       <use xlink:href="#DejaVuSans-30" transform="translate(63.623047 0)"/>
       <use xlink:href="#DejaVuSans-30" transform="translate(127.246094 0)"/>
       <use xlink:href="#DejaVuSans-36" transform="translate(190.869141 0)"/>
       <use xlink:href="#DejaVuSans-2d" transform="translate(254.492188 0)"/>
       <use xlink:href="#DejaVuSans-32" transform="translate(290.576172 0)"/>
       <use xlink:href="#DejaVuSans-30" transform="translate(354.199219 0)"/>
       <use xlink:href="#DejaVuSans-30" transform="translate(417.822266 0)"/>
       <use xlink:href="#DejaVuSans-37" transform="translate(481.445312 0)"/>
      </g>
     </g>
    </g>
    <g id="xtick_3">
     <g id="line2d_3"/>
     <g id="text_3">
      <!-- 2007-2008 -->
      <g transform="translate(192.905016 453.734605) rotate(-45) scale(0.18 -0.18)">
       <defs>
        <path id="DejaVuSans-38" d="M 2034 2216 
Q 1584 2216 1326 1975 
Q 1069 1734 1069 1313 
Q 1069 891 1326 650 
Q 1584 409 2034 409 
Q 2484 409 2743 651 
Q 3003 894 3003 1313 
Q 3003 1734 2745 1975 
Q 2488 2216 2034 2216 
z
M 1403 2484 
Q 997 2584 770 2862 
Q 544 3141 544 3541 
Q 544 4100 942 4425 
Q 1341 4750 2034 4750 
Q 2731 4750 3128 4425 
Q 3525 4100 3525 3541 
Q 3525 3141 3298 2862 
Q 3072 2584 2669 2484 
Q 3125 2378 3379 2068 
Q 3634 1759 3634 1313 
Q 3634 634 3220 271 
Q 2806 -91 2034 -91 
Q 1263 -91 848 271 
Q 434 634 434 1313 
Q 434 1759 690 2068 
Q 947 2378 1403 2484 
z
M 1172 3481 
Q 1172 3119 1398 2916 
Q 1625 2713 2034 2713 
Q 2441 2713 2670 2916 
Q 2900 3119 2900 3481 
Q 2900 3844 2670 4047 
Q 2441 4250 2034 4250 
Q 1625 4250 1398 4047 
Q 1172 3844 1172 3481 
z
" transform="scale(0.015625)"/>
       </defs>
       <use xlink:href="#DejaVuSans-32"/>
       <use xlink:href="#DejaVuSans-30" transform="translate(63.623047 0)"/>
       <use xlink:href="#DejaVuSans-30" transform="translate(127.246094 0)"/>
       <use xlink:href="#DejaVuSans-37" transform="translate(190.869141 0)"/>
       <use xlink:href="#DejaVuSans-2d" transform="translate(254.492188 0)"/>
       <use xlink:href="#DejaVuSans-32" transform="translate(290.576172 0)"/>
       <use xlink:href="#DejaVuSans-30" transform="translate(354.199219 0)"/>
       <use xlink:href="#DejaVuSans-30" transform="translate(417.822266 0)"/>
       <use xlink:href="#DejaVuSans-38" transform="translate(481.445312 0)"/>
      </g>
     </g>
    </g>
    <g id="xtick_4">
     <g id="line2d_4"/>
     <g id="text_4">
      <!-- 2008-2009 -->
      <g transform="translate(259.115874 453.734605) rotate(-45) scale(0.18 -0.18)">
       <defs>
        <path id="DejaVuSans-39" d="M 703 97 
L 703 672 
Q 941 559 1184 500 
Q 1428 441 1663 441 
Q 2288 441 2617 861 
Q 2947 1281 2994 2138 
Q 2813 1869 2534 1725 
Q 2256 1581 1919 1581 
Q 1219 1581 811 2004 
Q 403 2428 403 3163 
Q 403 3881 828 4315 
Q 1253 4750 1959 4750 
Q 2769 4750 3195 4129 
Q 3622 3509 3622 2328 
Q 3622 1225 3098 567 
Q 2575 -91 1691 -91 
Q 1453 -91 1209 -44 
Q 966 3 703 97 
z
M 1959 2075 
Q 2384 2075 2632 2365 
Q 2881 2656 2881 3163 
Q 2881 3666 2632 3958 
Q 2384 4250 1959 4250 
Q 1534 4250 1286 3958 
Q 1038 3666 1038 3163 
Q 1038 2656 1286 2365 
Q 1534 2075 1959 2075 
z
" transform="scale(0.015625)"/>
       </defs>
       <use xlink:href="#DejaVuSans-32"/>
       <use xlink:href="#DejaVuSans-30" transform="translate(63.623047 0)"/>
       <use xlink:href="#DejaVuSans-30" transform="translate(127.246094 0)"/>
       <use xlink:href="#DejaVuSans-38" transform="translate(190.869141 0)"/>
       <use xlink:href="#DejaVuSans-2d" transform="translate(254.492188 0)"/>
       <use xlink:href="#DejaVuSans-32" transform="translate(290.576172 0)"/>
       <use xlink:href="#DejaVuSans-30" transform="translate(354.199219 0)"/>
       <use xlink:href="#DejaVuSans-30" transform="translate(417.822266 0)"/>
       <use xlink:href="#DejaVuSans-39" transform="translate(481.445312 0)"/>
      </g>
     </g>
    </g>
    <g id="xtick_5">
     <g id="line2d_5"/>
     <g id="text_5">
      <!-- 2009-2010 -->
      <g transform="translate(325.326733 453.734605) rotate(-45) scale(0.18 -0.18)">
       <defs>
        <path id="DejaVuSans-31" d="M 794 531 
L 1825 531 
L 1825 4091 
L 703 3866 
L 703 4441 
L 1819 4666 
L 2450 4666 
L 2450 531 
L 3481 531 
L 3481 0 
L 794 0 
L 794 531 
z
" transform="scale(0.015625)"/>
       </defs>
       <use xlink:href="#DejaVuSans-32"/>
       <use xlink:href="#DejaVuSans-30" transform="translate(63.623047 0)"/>
       <use xlink:href="#DejaVuSans-30" transform="translate(127.246094 0)"/>
       <use xlink:href="#DejaVuSans-39" transform="translate(190.869141 0)"/>
       <use xlink:href="#DejaVuSans-2d" transform="translate(254.492188 0)"/>
       <use xlink:href="#DejaVuSans-32" transform="translate(290.576172 0)"/>
       <use xlink:href="#DejaVuSans-30" transform="translate(354.199219 0)"/>
       <use xlink:href="#DejaVuSans-31" transform="translate(417.822266 0)"/>
       <use xlink:href="#DejaVuSans-30" transform="translate(481.445312 0)"/>
      </g>
     </g>
    </g>
    <g id="xtick_6">
     <g id="line2d_6"/>
     <g id="text_6">
      <!-- 2010-2011 -->
      <g transform="translate(391.537591 453.734605) rotate(-45) scale(0.18 -0.18)">
       <use xlink:href="#DejaVuSans-32"/>
       <use xlink:href="#DejaVuSans-30" transform="translate(63.623047 0)"/>
       <use xlink:href="#DejaVuSans-31" transform="translate(127.246094 0)"/>
       <use xlink:href="#DejaVuSans-30" transform="translate(190.869141 0)"/>
       <use xlink:href="#DejaVuSans-2d" transform="translate(254.492188 0)"/>
       <use xlink:href="#DejaVuSans-32" transform="translate(290.576172 0)"/>
       <use xlink:href="#DejaVuSans-30" transform="translate(354.199219 0)"/>
       <use xlink:href="#DejaVuSans-31" transform="translate(417.822266 0)"/>
       <use xlink:href="#DejaVuSans-31" transform="translate(481.445312 0)"/>
      </g>
     </g>
    </g>
    <g id="xtick_7">
     <g id="line2d_7"/>
     <g id="text_7">
      <!-- 2011-2012 -->
      <g transform="translate(457.74845 453.734605) rotate(-45) scale(0.18 -0.18)">
       <use xlink:href="#DejaVuSans-32"/>
       <use xlink:href="#DejaVuSans-30" transform="translate(63.623047 0)"/>
       <use xlink:href="#DejaVuSans-31" transform="translate(127.246094 0)"/>
       <use xlink:href="#DejaVuSans-31" transform="translate(190.869141 0)"/>
       <use xlink:href="#DejaVuSans-2d" transform="translate(254.492188 0)"/>
       <use xlink:href="#DejaVuSans-32" transform="translate(290.576172 0)"/>
       <use xlink:href="#DejaVuSans-30" transform="translate(354.199219 0)"/>
       <use xlink:href="#DejaVuSans-31" transform="translate(417.822266 0)"/>
       <use xlink:href="#DejaVuSans-32" transform="translate(481.445312 0)"/>
      </g>
     </g>
    </g>
    <g id="xtick_8">
     <g id="line2d_8"/>
     <g id="text_8">
      <!-- 2012-2013 -->
      <g transform="translate(523.959309 453.734605) rotate(-45) scale(0.18 -0.18)">
       <defs>
        <path id="DejaVuSans-33" d="M 2597 2516 
Q 3050 2419 3304 2112 
Q 3559 1806 3559 1356 
Q 3559 666 3084 287 
Q 2609 -91 1734 -91 
Q 1441 -91 1130 -33 
Q 819 25 488 141 
L 488 750 
Q 750 597 1062 519 
Q 1375 441 1716 441 
Q 2309 441 2620 675 
Q 2931 909 2931 1356 
Q 2931 1769 2642 2001 
Q 2353 2234 1838 2234 
L 1294 2234 
L 1294 2753 
L 1863 2753 
Q 2328 2753 2575 2939 
Q 2822 3125 2822 3475 
Q 2822 3834 2567 4026 
Q 2313 4219 1838 4219 
Q 1578 4219 1281 4162 
Q 984 4106 628 3988 
L 628 4550 
Q 988 4650 1302 4700 
Q 1616 4750 1894 4750 
Q 2613 4750 3031 4423 
Q 3450 4097 3450 3541 
Q 3450 3153 3228 2886 
Q 3006 2619 2597 2516 
z
" transform="scale(0.015625)"/>
       </defs>
       <use xlink:href="#DejaVuSans-32"/>
       <use xlink:href="#DejaVuSans-30" transform="translate(63.623047 0)"/>
       <use xlink:href="#DejaVuSans-31" transform="translate(127.246094 0)"/>
       <use xlink:href="#DejaVuSans-32" transform="translate(190.869141 0)"/>
       <use xlink:href="#DejaVuSans-2d" transform="translate(254.492188 0)"/>
       <use xlink:href="#DejaVuSans-32" transform="translate(290.576172 0)"/>
       <use xlink:href="#DejaVuSans-30" transform="translate(354.199219 0)"/>
       <use xlink:href="#DejaVuSans-31" transform="translate(417.822266 0)"/>
       <use xlink:href="#DejaVuSans-33" transform="translate(481.445312 0)"/>
      </g>
     </g>
    </g>
    <g id="xtick_9">
     <g id="line2d_9"/>
     <g id="text_9">
      <!-- 2013-2014 -->
      <g transform="translate(590.170167 453.734605) rotate(-45) scale(0.18 -0.18)">
       <defs>
        <path id="DejaVuSans-34" d="M 2419 4116 
L 825 1625 
L 2419 1625 
L 2419 4116 
z
M 2253 4666 
L 3047 4666 
L 3047 1625 
L 3713 1625 
L 3713 1100 
L 3047 1100 
L 3047 0 
L 2419 0 
L 2419 1100 
L 313 1100 
L 313 1709 
L 2253 4666 
z
" transform="scale(0.015625)"/>
       </defs>
       <use xlink:href="#DejaVuSans-32"/>
       <use xlink:href="#DejaVuSans-30" transform="translate(63.623047 0)"/>
       <use xlink:href="#DejaVuSans-31" transform="translate(127.246094 0)"/>
       <use xlink:href="#DejaVuSans-33" transform="translate(190.869141 0)"/>
       <use xlink:href="#DejaVuSans-2d" transform="translate(254.492188 0)"/>
       <use xlink:href="#DejaVuSans-32" transform="translate(290.576172 0)"/>
       <use xlink:href="#DejaVuSans-30" transform="translate(354.199219 0)"/>
       <use xlink:href="#DejaVuSans-31" transform="translate(417.822266 0)"/>
       <use xlink:href="#DejaVuSans-34" transform="translate(481.445312 0)"/>
      </g>
     </g>
    </g>
    <g id="xtick_10">
     <g id="line2d_10"/>
     <g id="text_10">
      <!-- 2014-2015 -->
      <g transform="translate(656.381026 453.734605) rotate(-45) scale(0.18 -0.18)">
       <use xlink:href="#DejaVuSans-32"/>
       <use xlink:href="#DejaVuSans-30" transform="translate(63.623047 0)"/>
       <use xlink:href="#DejaVuSans-31" transform="translate(127.246094 0)"/>
       <use xlink:href="#DejaVuSans-34" transform="translate(190.869141 0)"/>
       <use xlink:href="#DejaVuSans-2d" transform="translate(254.492188 0)"/>
       <use xlink:href="#DejaVuSans-32" transform="translate(290.576172 0)"/>
       <use xlink:href="#DejaVuSans-30" transform="translate(354.199219 0)"/>
       <use xlink:href="#DejaVuSans-31" transform="translate(417.822266 0)"/>
       <use xlink:href="#DejaVuSans-35" transform="translate(481.445312 0)"/>
      </g>
     </g>
    </g>
    <g id="xtick_11">
     <g id="line2d_11"/>
     <g id="text_11">
      <!-- 2015-2016 -->
      <g transform="translate(722.591884 453.466945) rotate(-45) scale(0.18 -0.18)">
       <use xlink:href="#DejaVuSans-32"/>
       <use xlink:href="#DejaVuSans-30" transform="translate(63.623047 0)"/>
       <use xlink:href="#DejaVuSans-31" transform="translate(127.246094 0)"/>
       <use xlink:href="#DejaVuSans-35" transform="translate(190.869141 0)"/>
       <use xlink:href="#DejaVuSans-2d" transform="translate(254.492188 0)"/>
       <use xlink:href="#DejaVuSans-32" transform="translate(290.576172 0)"/>
       <use xlink:href="#DejaVuSans-30" transform="translate(354.199219 0)"/>
       <use xlink:href="#DejaVuSans-31" transform="translate(417.822266 0)"/>
       <use xlink:href="#DejaVuSans-36" transform="translate(481.445312 0)"/>
      </g>
     </g>
    </g>
    <g id="xtick_12">
     <g id="line2d_12"/>
     <g id="text_12">
      <!-- 2016-2017 -->
      <g transform="translate(788.802743 453.466945) rotate(-45) scale(0.18 -0.18)">
       <use xlink:href="#DejaVuSans-32"/>
       <use xlink:href="#DejaVuSans-30" transform="translate(63.623047 0)"/>
       <use xlink:href="#DejaVuSans-31" transform="translate(127.246094 0)"/>
       <use xlink:href="#DejaVuSans-36" transform="translate(190.869141 0)"/>
       <use xlink:href="#DejaVuSans-2d" transform="translate(254.492188 0)"/>
       <use xlink:href="#DejaVuSans-32" transform="translate(290.576172 0)"/>
       <use xlink:href="#DejaVuSans-30" transform="translate(354.199219 0)"/>
       <use xlink:href="#DejaVuSans-31" transform="translate(417.822266 0)"/>
       <use xlink:href="#DejaVuSans-37" transform="translate(481.445312 0)"/>
      </g>
     </g>
    </g>
    <g id="xtick_13">
     <g id="line2d_13"/>
     <g id="text_13">
      <!-- 2017-2018 -->
      <g transform="translate(855.013601 453.466945) rotate(-45) scale(0.18 -0.18)">
       <use xlink:href="#DejaVuSans-32"/>
       <use xlink:href="#DejaVuSans-30" transform="translate(63.623047 0)"/>
       <use xlink:href="#DejaVuSans-31" transform="translate(127.246094 0)"/>
       <use xlink:href="#DejaVuSans-37" transform="translate(190.869141 0)"/>
       <use xlink:href="#DejaVuSans-2d" transform="translate(254.492188 0)"/>
       <use xlink:href="#DejaVuSans-32" transform="translate(290.576172 0)"/>
       <use xlink:href="#DejaVuSans-30" transform="translate(354.199219 0)"/>
       <use xlink:href="#DejaVuSans-31" transform="translate(417.822266 0)"/>
       <use xlink:href="#DejaVuSans-38" transform="translate(481.445312 0)"/>
      </g>
     </g>
    </g>
    <g id="xtick_14">
     <g id="line2d_14"/>
     <g id="text_14">
      <!-- 2018-2019 -->
      <g transform="translate(921.22446 453.466945) rotate(-45) scale(0.18 -0.18)">
       <use xlink:href="#DejaVuSans-32"/>
       <use xlink:href="#DejaVuSans-30" transform="translate(63.623047 0)"/>
       <use xlink:href="#DejaVuSans-31" transform="translate(127.246094 0)"/>
       <use xlink:href="#DejaVuSans-38" transform="translate(190.869141 0)"/>
       <use xlink:href="#DejaVuSans-2d" transform="translate(254.492188 0)"/>
       <use xlink:href="#DejaVuSans-32" transform="translate(290.576172 0)"/>
       <use xlink:href="#DejaVuSans-30" transform="translate(354.199219 0)"/>
       <use xlink:href="#DejaVuSans-31" transform="translate(417.822266 0)"/>
       <use xlink:href="#DejaVuSans-39" transform="translate(481.445312 0)"/>
      </g>
     </g>
    </g>
    <g id="xtick_15">
     <g id="line2d_15"/>
     <g id="text_15">
      <!-- 2019-2020 -->
      <g transform="translate(987.435319 453.466945) rotate(-45) scale(0.18 -0.18)">
       <use xlink:href="#DejaVuSans-32"/>
       <use xlink:href="#DejaVuSans-30" transform="translate(63.623047 0)"/>
       <use xlink:href="#DejaVuSans-31" transform="translate(127.246094 0)"/>
       <use xlink:href="#DejaVuSans-39" transform="translate(190.869141 0)"/>
       <use xlink:href="#DejaVuSans-2d" transform="translate(254.492188 0)"/>
       <use xlink:href="#DejaVuSans-32" transform="translate(290.576172 0)"/>
       <use xlink:href="#DejaVuSans-30" transform="translate(354.199219 0)"/>
       <use xlink:href="#DejaVuSans-32" transform="translate(417.822266 0)"/>
       <use xlink:href="#DejaVuSans-30" transform="translate(481.445312 0)"/>
      </g>
     </g>
    </g>
   </g>
   <g id="matplotlib.axis_2">
    <g id="ytick_1">
     <g id="line2d_16"/>
     <g id="text_16">
      <!-- 2000 -->
      <g transform="translate(7.2 556.197188) scale(0.18 -0.18)">
       <defs>
        <path id="DejaVuSans-2212" d="M 678 2272 
L 4684 2272 
L 4684 1741 
L 678 1741 
L 678 2272 
z
" transform="scale(0.015625)"/>
       </defs>
       <use xlink:href="#DejaVuSans-2212"/>
       <use xlink:href="#DejaVuSans-32" transform="translate(83.789062 0)"/>
       <use xlink:href="#DejaVuSans-30" transform="translate(147.412109 0)"/>
       <use xlink:href="#DejaVuSans-30" transform="translate(211.035156 0)"/>
       <use xlink:href="#DejaVuSans-30" transform="translate(274.658203 0)"/>
      </g>
     </g>
    </g>
    <g id="ytick_2">
     <g id="line2d_17"/>
     <g id="text_17">
      <!-- 1000 -->
      <g transform="translate(7.2 466.977188) scale(0.18 -0.18)">
       <use xlink:href="#DejaVuSans-2212"/>
       <use xlink:href="#DejaVuSans-31" transform="translate(83.789062 0)"/>
       <use xlink:href="#DejaVuSans-30" transform="translate(147.412109 0)"/>
       <use xlink:href="#DejaVuSans-30" transform="translate(211.035156 0)"/>
       <use xlink:href="#DejaVuSans-30" transform="translate(274.658203 0)"/>
      </g>
     </g>
    </g>
    <g id="ytick_3">
     <g id="line2d_18"/>
     <g id="text_18">
      <!-- 0 -->
      <g transform="translate(56.640937 377.757188) scale(0.18 -0.18)">
       <use xlink:href="#DejaVuSans-30"/>
      </g>
     </g>
    </g>
    <g id="ytick_4">
     <g id="line2d_19"/>
     <g id="text_19">
      <!-- 1000 -->
      <g transform="translate(22.283437 288.537188) scale(0.18 -0.18)">
       <use xlink:href="#DejaVuSans-31"/>
       <use xlink:href="#DejaVuSans-30" transform="translate(63.623047 0)"/>
       <use xlink:href="#DejaVuSans-30" transform="translate(127.246094 0)"/>
       <use xlink:href="#DejaVuSans-30" transform="translate(190.869141 0)"/>
      </g>
     </g>
    </g>
    <g id="ytick_5">
     <g id="line2d_20"/>
     <g id="text_20">
      <!-- 2000 -->
      <g transform="translate(22.283437 199.317188) scale(0.18 -0.18)">
       <use xlink:href="#DejaVuSans-32"/>
       <use xlink:href="#DejaVuSans-30" transform="translate(63.623047 0)"/>
       <use xlink:href="#DejaVuSans-30" transform="translate(127.246094 0)"/>
       <use xlink:href="#DejaVuSans-30" transform="translate(190.869141 0)"/>
      </g>
     </g>
    </g>
    <g id="ytick_6">
     <g id="line2d_21"/>
     <g id="text_21">
      <!-- 3000 -->
      <g transform="translate(22.283437 110.097188) scale(0.18 -0.18)">
       <use xlink:href="#DejaVuSans-33"/>
       <use xlink:href="#DejaVuSans-30" transform="translate(63.623047 0)"/>
       <use xlink:href="#DejaVuSans-30" transform="translate(127.246094 0)"/>
       <use xlink:href="#DejaVuSans-30" transform="translate(190.869141 0)"/>
      </g>
     </g>
    </g>
    <g id="ytick_7">
     <g id="line2d_22"/>
     <g id="text_22">
      <!-- 4000 -->
      <g transform="translate(22.283437 20.877187) scale(0.18 -0.18)">
       <use xlink:href="#DejaVuSans-34"/>
       <use xlink:href="#DejaVuSans-30" transform="translate(63.623047 0)"/>
       <use xlink:href="#DejaVuSans-30" transform="translate(127.246094 0)"/>
       <use xlink:href="#DejaVuSans-30" transform="translate(190.869141 0)"/>
      </g>
     </g>
    </g>
   </g>
   <g id="line2d_23">
    <path d="M 71.593437 370.918594 
L 1120.373437 370.918594 
" clip-path="url(#pba81b218cf)" style="fill: none; stroke: #808080; stroke-width: 0.8; stroke-linecap: square"/>
   </g>
   <g id="legend_1">
    <g id="patch_183">
     <path d="M 298.190312 606.631781 
L 312.590312 606.631781 
L 312.590312 592.861781 
L 298.190312 592.861781 
z
" style="fill: #4472c4"/>
    </g>
    <g id="text_23">
     <!-- Carbon emission coefficient -->
     <g transform="translate(326.990312 606.001781) scale(0.18 -0.18)">
      <defs>
       <path id="DejaVuSans-43" d="M 4122 4306 
L 4122 3641 
Q 3803 3938 3442 4084 
Q 3081 4231 2675 4231 
Q 1875 4231 1450 3742 
Q 1025 3253 1025 2328 
Q 1025 1406 1450 917 
Q 1875 428 2675 428 
Q 3081 428 3442 575 
Q 3803 722 4122 1019 
L 4122 359 
Q 3791 134 3420 21 
Q 3050 -91 2638 -91 
Q 1578 -91 968 557 
Q 359 1206 359 2328 
Q 359 3453 968 4101 
Q 1578 4750 2638 4750 
Q 3056 4750 3426 4639 
Q 3797 4528 4122 4306 
z
" transform="scale(0.015625)"/>
       <path id="DejaVuSans-61" d="M 2194 1759 
Q 1497 1759 1228 1600 
Q 959 1441 959 1056 
Q 959 750 1161 570 
Q 1363 391 1709 391 
Q 2188 391 2477 730 
Q 2766 1069 2766 1631 
L 2766 1759 
L 2194 1759 
z
M 3341 1997 
L 3341 0 
L 2766 0 
L 2766 531 
Q 2569 213 2275 61 
Q 1981 -91 1556 -91 
Q 1019 -91 701 211 
Q 384 513 384 1019 
Q 384 1609 779 1909 
Q 1175 2209 1959 2209 
L 2766 2209 
L 2766 2266 
Q 2766 2663 2505 2880 
Q 2244 3097 1772 3097 
Q 1472 3097 1187 3025 
Q 903 2953 641 2809 
L 641 3341 
Q 956 3463 1253 3523 
Q 1550 3584 1831 3584 
Q 2591 3584 2966 3190 
Q 3341 2797 3341 1997 
z
" transform="scale(0.015625)"/>
       <path id="DejaVuSans-72" d="M 2631 2963 
Q 2534 3019 2420 3045 
Q 2306 3072 2169 3072 
Q 1681 3072 1420 2755 
Q 1159 2438 1159 1844 
L 1159 0 
L 581 0 
L 581 3500 
L 1159 3500 
L 1159 2956 
Q 1341 3275 1631 3429 
Q 1922 3584 2338 3584 
Q 2397 3584 2469 3576 
Q 2541 3569 2628 3553 
L 2631 2963 
z
" transform="scale(0.015625)"/>
       <path id="DejaVuSans-62" d="M 3116 1747 
Q 3116 2381 2855 2742 
Q 2594 3103 2138 3103 
Q 1681 3103 1420 2742 
Q 1159 2381 1159 1747 
Q 1159 1113 1420 752 
Q 1681 391 2138 391 
Q 2594 391 2855 752 
Q 3116 1113 3116 1747 
z
M 1159 2969 
Q 1341 3281 1617 3432 
Q 1894 3584 2278 3584 
Q 2916 3584 3314 3078 
Q 3713 2572 3713 1747 
Q 3713 922 3314 415 
Q 2916 -91 2278 -91 
Q 1894 -91 1617 61 
Q 1341 213 1159 525 
L 1159 0 
L 581 0 
L 581 4863 
L 1159 4863 
L 1159 2969 
z
" transform="scale(0.015625)"/>
       <path id="DejaVuSans-6f" d="M 1959 3097 
Q 1497 3097 1228 2736 
Q 959 2375 959 1747 
Q 959 1119 1226 758 
Q 1494 397 1959 397 
Q 2419 397 2687 759 
Q 2956 1122 2956 1747 
Q 2956 2369 2687 2733 
Q 2419 3097 1959 3097 
z
M 1959 3584 
Q 2709 3584 3137 3096 
Q 3566 2609 3566 1747 
Q 3566 888 3137 398 
Q 2709 -91 1959 -91 
Q 1206 -91 779 398 
Q 353 888 353 1747 
Q 353 2609 779 3096 
Q 1206 3584 1959 3584 
z
" transform="scale(0.015625)"/>
       <path id="DejaVuSans-6e" d="M 3513 2113 
L 3513 0 
L 2938 0 
L 2938 2094 
Q 2938 2591 2744 2837 
Q 2550 3084 2163 3084 
Q 1697 3084 1428 2787 
Q 1159 2491 1159 1978 
L 1159 0 
L 581 0 
L 581 3500 
L 1159 3500 
L 1159 2956 
Q 1366 3272 1645 3428 
Q 1925 3584 2291 3584 
Q 2894 3584 3203 3211 
Q 3513 2838 3513 2113 
z
" transform="scale(0.015625)"/>
       <path id="DejaVuSans-20" transform="scale(0.015625)"/>
       <path id="DejaVuSans-65" d="M 3597 1894 
L 3597 1613 
L 953 1613 
Q 991 1019 1311 708 
Q 1631 397 2203 397 
Q 2534 397 2845 478 
Q 3156 559 3463 722 
L 3463 178 
Q 3153 47 2828 -22 
Q 2503 -91 2169 -91 
Q 1331 -91 842 396 
Q 353 884 353 1716 
Q 353 2575 817 3079 
Q 1281 3584 2069 3584 
Q 2775 3584 3186 3129 
Q 3597 2675 3597 1894 
z
M 3022 2063 
Q 3016 2534 2758 2815 
Q 2500 3097 2075 3097 
Q 1594 3097 1305 2825 
Q 1016 2553 972 2059 
L 3022 2063 
z
" transform="scale(0.015625)"/>
       <path id="DejaVuSans-6d" d="M 3328 2828 
Q 3544 3216 3844 3400 
Q 4144 3584 4550 3584 
Q 5097 3584 5394 3201 
Q 5691 2819 5691 2113 
L 5691 0 
L 5113 0 
L 5113 2094 
Q 5113 2597 4934 2840 
Q 4756 3084 4391 3084 
Q 3944 3084 3684 2787 
Q 3425 2491 3425 1978 
L 3425 0 
L 2847 0 
L 2847 2094 
Q 2847 2600 2669 2842 
Q 2491 3084 2119 3084 
Q 1678 3084 1418 2786 
Q 1159 2488 1159 1978 
L 1159 0 
L 581 0 
L 581 3500 
L 1159 3500 
L 1159 2956 
Q 1356 3278 1631 3431 
Q 1906 3584 2284 3584 
Q 2666 3584 2933 3390 
Q 3200 3197 3328 2828 
z
" transform="scale(0.015625)"/>
       <path id="DejaVuSans-69" d="M 603 3500 
L 1178 3500 
L 1178 0 
L 603 0 
L 603 3500 
z
M 603 4863 
L 1178 4863 
L 1178 4134 
L 603 4134 
L 603 4863 
z
" transform="scale(0.015625)"/>
       <path id="DejaVuSans-73" d="M 2834 3397 
L 2834 2853 
Q 2591 2978 2328 3040 
Q 2066 3103 1784 3103 
Q 1356 3103 1142 2972 
Q 928 2841 928 2578 
Q 928 2378 1081 2264 
Q 1234 2150 1697 2047 
L 1894 2003 
Q 2506 1872 2764 1633 
Q 3022 1394 3022 966 
Q 3022 478 2636 193 
Q 2250 -91 1575 -91 
Q 1294 -91 989 -36 
Q 684 19 347 128 
L 347 722 
Q 666 556 975 473 
Q 1284 391 1588 391 
Q 1994 391 2212 530 
Q 2431 669 2431 922 
Q 2431 1156 2273 1281 
Q 2116 1406 1581 1522 
L 1381 1569 
Q 847 1681 609 1914 
Q 372 2147 372 2553 
Q 372 3047 722 3315 
Q 1072 3584 1716 3584 
Q 2034 3584 2315 3537 
Q 2597 3491 2834 3397 
z
" transform="scale(0.015625)"/>
       <path id="DejaVuSans-63" d="M 3122 3366 
L 3122 2828 
Q 2878 2963 2633 3030 
Q 2388 3097 2138 3097 
Q 1578 3097 1268 2742 
Q 959 2388 959 1747 
Q 959 1106 1268 751 
Q 1578 397 2138 397 
Q 2388 397 2633 464 
Q 2878 531 3122 666 
L 3122 134 
Q 2881 22 2623 -34 
Q 2366 -91 2075 -91 
Q 1284 -91 818 406 
Q 353 903 353 1747 
Q 353 2603 823 3093 
Q 1294 3584 2113 3584 
Q 2378 3584 2631 3529 
Q 2884 3475 3122 3366 
z
" transform="scale(0.015625)"/>
       <path id="DejaVuSans-66" d="M 2375 4863 
L 2375 4384 
L 1825 4384 
Q 1516 4384 1395 4259 
Q 1275 4134 1275 3809 
L 1275 3500 
L 2222 3500 
L 2222 3053 
L 1275 3053 
L 1275 0 
L 697 0 
L 697 3053 
L 147 3053 
L 147 3500 
L 697 3500 
L 697 3744 
Q 697 4328 969 4595 
Q 1241 4863 1831 4863 
L 2375 4863 
z
" transform="scale(0.015625)"/>
       <path id="DejaVuSans-74" d="M 1172 4494 
L 1172 3500 
L 2356 3500 
L 2356 3053 
L 1172 3053 
L 1172 1153 
Q 1172 725 1289 603 
Q 1406 481 1766 481 
L 2356 481 
L 2356 0 
L 1766 0 
Q 1100 0 847 248 
Q 594 497 594 1153 
L 594 3053 
L 172 3053 
L 172 3500 
L 594 3500 
L 594 4494 
L 1172 4494 
z
" transform="scale(0.015625)"/>
      </defs>
      <use xlink:href="#DejaVuSans-43"/>
      <use xlink:href="#DejaVuSans-61" transform="translate(69.824219 0)"/>
      <use xlink:href="#DejaVuSans-72" transform="translate(131.103516 0)"/>
      <use xlink:href="#DejaVuSans-62" transform="translate(172.216797 0)"/>
      <use xlink:href="#DejaVuSans-6f" transform="translate(235.693359 0)"/>
      <use xlink:href="#DejaVuSans-6e" transform="translate(296.875 0)"/>
      <use xlink:href="#DejaVuSans-20" transform="translate(360.253906 0)"/>
      <use xlink:href="#DejaVuSans-65" transform="translate(392.041016 0)"/>
      <use xlink:href="#DejaVuSans-6d" transform="translate(453.564453 0)"/>
      <use xlink:href="#DejaVuSans-69" transform="translate(550.976562 0)"/>
      <use xlink:href="#DejaVuSans-73" transform="translate(578.759766 0)"/>
      <use xlink:href="#DejaVuSans-73" transform="translate(630.859375 0)"/>
      <use xlink:href="#DejaVuSans-69" transform="translate(682.958984 0)"/>
      <use xlink:href="#DejaVuSans-6f" transform="translate(710.742188 0)"/>
      <use xlink:href="#DejaVuSans-6e" transform="translate(771.923828 0)"/>
      <use xlink:href="#DejaVuSans-20" transform="translate(835.302734 0)"/>
      <use xlink:href="#DejaVuSans-63" transform="translate(867.089844 0)"/>
      <use xlink:href="#DejaVuSans-6f" transform="translate(922.070312 0)"/>
      <use xlink:href="#DejaVuSans-65" transform="translate(983.251953 0)"/>
      <use xlink:href="#DejaVuSans-66" transform="translate(1044.775391 0)"/>
      <use xlink:href="#DejaVuSans-66" transform="translate(1079.980469 0)"/>
      <use xlink:href="#DejaVuSans-69" transform="translate(1115.185547 0)"/>
      <use xlink:href="#DejaVuSans-63" transform="translate(1142.96875 0)"/>
      <use xlink:href="#DejaVuSans-69" transform="translate(1197.949219 0)"/>
      <use xlink:href="#DejaVuSans-65" transform="translate(1225.732422 0)"/>
      <use xlink:href="#DejaVuSans-6e" transform="translate(1287.255859 0)"/>
      <use xlink:href="#DejaVuSans-74" transform="translate(1350.634766 0)"/>
     </g>
    </g>
    <g id="patch_184">
     <path d="M 298.190312 642.052406 
L 312.590312 642.052406 
L 312.590312 628.282406 
L 298.190312 628.282406 
z
" style="fill: #ed7d31"/>
    </g>
    <g id="text_24">
     <!-- Energy consumption structure -->
     <g transform="translate(326.990312 641.422406) scale(0.18 -0.18)">
      <defs>
       <path id="DejaVuSans-45" d="M 628 4666 
L 3578 4666 
L 3578 4134 
L 1259 4134 
L 1259 2753 
L 3481 2753 
L 3481 2222 
L 1259 2222 
L 1259 531 
L 3634 531 
L 3634 0 
L 628 0 
L 628 4666 
z
" transform="scale(0.015625)"/>
       <path id="DejaVuSans-67" d="M 2906 1791 
Q 2906 2416 2648 2759 
Q 2391 3103 1925 3103 
Q 1463 3103 1205 2759 
Q 947 2416 947 1791 
Q 947 1169 1205 825 
Q 1463 481 1925 481 
Q 2391 481 2648 825 
Q 2906 1169 2906 1791 
z
M 3481 434 
Q 3481 -459 3084 -895 
Q 2688 -1331 1869 -1331 
Q 1566 -1331 1297 -1286 
Q 1028 -1241 775 -1147 
L 775 -588 
Q 1028 -725 1275 -790 
Q 1522 -856 1778 -856 
Q 2344 -856 2625 -561 
Q 2906 -266 2906 331 
L 2906 616 
Q 2728 306 2450 153 
Q 2172 0 1784 0 
Q 1141 0 747 490 
Q 353 981 353 1791 
Q 353 2603 747 3093 
Q 1141 3584 1784 3584 
Q 2172 3584 2450 3431 
Q 2728 3278 2906 2969 
L 2906 3500 
L 3481 3500 
L 3481 434 
z
" transform="scale(0.015625)"/>
       <path id="DejaVuSans-79" d="M 2059 -325 
Q 1816 -950 1584 -1140 
Q 1353 -1331 966 -1331 
L 506 -1331 
L 506 -850 
L 844 -850 
Q 1081 -850 1212 -737 
Q 1344 -625 1503 -206 
L 1606 56 
L 191 3500 
L 800 3500 
L 1894 763 
L 2988 3500 
L 3597 3500 
L 2059 -325 
z
" transform="scale(0.015625)"/>
       <path id="DejaVuSans-75" d="M 544 1381 
L 544 3500 
L 1119 3500 
L 1119 1403 
Q 1119 906 1312 657 
Q 1506 409 1894 409 
Q 2359 409 2629 706 
Q 2900 1003 2900 1516 
L 2900 3500 
L 3475 3500 
L 3475 0 
L 2900 0 
L 2900 538 
Q 2691 219 2414 64 
Q 2138 -91 1772 -91 
Q 1169 -91 856 284 
Q 544 659 544 1381 
z
M 1991 3584 
L 1991 3584 
z
" transform="scale(0.015625)"/>
       <path id="DejaVuSans-70" d="M 1159 525 
L 1159 -1331 
L 581 -1331 
L 581 3500 
L 1159 3500 
L 1159 2969 
Q 1341 3281 1617 3432 
Q 1894 3584 2278 3584 
Q 2916 3584 3314 3078 
Q 3713 2572 3713 1747 
Q 3713 922 3314 415 
Q 2916 -91 2278 -91 
Q 1894 -91 1617 61 
Q 1341 213 1159 525 
z
M 3116 1747 
Q 3116 2381 2855 2742 
Q 2594 3103 2138 3103 
Q 1681 3103 1420 2742 
Q 1159 2381 1159 1747 
Q 1159 1113 1420 752 
Q 1681 391 2138 391 
Q 2594 391 2855 752 
Q 3116 1113 3116 1747 
z
" transform="scale(0.015625)"/>
      </defs>
      <use xlink:href="#DejaVuSans-45"/>
      <use xlink:href="#DejaVuSans-6e" transform="translate(63.183594 0)"/>
      <use xlink:href="#DejaVuSans-65" transform="translate(126.5625 0)"/>
      <use xlink:href="#DejaVuSans-72" transform="translate(188.085938 0)"/>
      <use xlink:href="#DejaVuSans-67" transform="translate(227.449219 0)"/>
      <use xlink:href="#DejaVuSans-79" transform="translate(290.925781 0)"/>
      <use xlink:href="#DejaVuSans-20" transform="translate(350.105469 0)"/>
      <use xlink:href="#DejaVuSans-63" transform="translate(381.892578 0)"/>
      <use xlink:href="#DejaVuSans-6f" transform="translate(436.873047 0)"/>
      <use xlink:href="#DejaVuSans-6e" transform="translate(498.054688 0)"/>
      <use xlink:href="#DejaVuSans-73" transform="translate(561.433594 0)"/>
      <use xlink:href="#DejaVuSans-75" transform="translate(613.533203 0)"/>
      <use xlink:href="#DejaVuSans-6d" transform="translate(676.912109 0)"/>
      <use xlink:href="#DejaVuSans-70" transform="translate(774.324219 0)"/>
      <use xlink:href="#DejaVuSans-74" transform="translate(837.800781 0)"/>
      <use xlink:href="#DejaVuSans-69" transform="translate(877.009766 0)"/>
      <use xlink:href="#DejaVuSans-6f" transform="translate(904.792969 0)"/>
      <use xlink:href="#DejaVuSans-6e" transform="translate(965.974609 0)"/>
      <use xlink:href="#DejaVuSans-20" transform="translate(1029.353516 0)"/>
      <use xlink:href="#DejaVuSans-73" transform="translate(1061.140625 0)"/>
      <use xlink:href="#DejaVuSans-74" transform="translate(1113.240234 0)"/>
      <use xlink:href="#DejaVuSans-72" transform="translate(1152.449219 0)"/>
      <use xlink:href="#DejaVuSans-75" transform="translate(1193.5625 0)"/>
      <use xlink:href="#DejaVuSans-63" transform="translate(1256.941406 0)"/>
      <use xlink:href="#DejaVuSans-74" transform="translate(1311.921875 0)"/>
      <use xlink:href="#DejaVuSans-75" transform="translate(1351.130859 0)"/>
      <use xlink:href="#DejaVuSans-72" transform="translate(1414.509766 0)"/>
      <use xlink:href="#DejaVuSans-65" transform="translate(1453.373047 0)"/>
     </g>
    </g>
    <g id="patch_185">
     <path d="M 298.190312 677.473031 
L 312.590312 677.473031 
L 312.590312 663.703031 
L 298.190312 663.703031 
z
" style="fill: #a5a5a5"/>
    </g>
    <g id="text_25">
     <!-- Energy intensity -->
     <g transform="translate(326.990312 676.843031) scale(0.18 -0.18)">
      <use xlink:href="#DejaVuSans-45"/>
      <use xlink:href="#DejaVuSans-6e" transform="translate(63.183594 0)"/>
      <use xlink:href="#DejaVuSans-65" transform="translate(126.5625 0)"/>
      <use xlink:href="#DejaVuSans-72" transform="translate(188.085938 0)"/>
      <use xlink:href="#DejaVuSans-67" transform="translate(227.449219 0)"/>
      <use xlink:href="#DejaVuSans-79" transform="translate(290.925781 0)"/>
      <use xlink:href="#DejaVuSans-20" transform="translate(350.105469 0)"/>
      <use xlink:href="#DejaVuSans-69" transform="translate(381.892578 0)"/>
      <use xlink:href="#DejaVuSans-6e" transform="translate(409.675781 0)"/>
      <use xlink:href="#DejaVuSans-74" transform="translate(473.054688 0)"/>
      <use xlink:href="#DejaVuSans-65" transform="translate(512.263672 0)"/>
      <use xlink:href="#DejaVuSans-6e" transform="translate(573.787109 0)"/>
      <use xlink:href="#DejaVuSans-73" transform="translate(637.166016 0)"/>
      <use xlink:href="#DejaVuSans-69" transform="translate(689.265625 0)"/>
      <use xlink:href="#DejaVuSans-74" transform="translate(717.048828 0)"/>
      <use xlink:href="#DejaVuSans-79" transform="translate(756.257812 0)"/>
     </g>
    </g>
    <g id="patch_186">
     <path d="M 635.667812 606.631781 
L 650.067812 606.631781 
L 650.067812 592.861781 
L 635.667812 592.861781 
z
" style="fill: #ffc000"/>
    </g>
    <g id="text_26">
     <!-- Industrial structure effect -->
     <g transform="translate(664.467812 606.001781) scale(0.18 -0.18)">
      <defs>
       <path id="DejaVuSans-49" d="M 628 4666 
L 1259 4666 
L 1259 0 
L 628 0 
L 628 4666 
z
" transform="scale(0.015625)"/>
       <path id="DejaVuSans-64" d="M 2906 2969 
L 2906 4863 
L 3481 4863 
L 3481 0 
L 2906 0 
L 2906 525 
Q 2725 213 2448 61 
Q 2172 -91 1784 -91 
Q 1150 -91 751 415 
Q 353 922 353 1747 
Q 353 2572 751 3078 
Q 1150 3584 1784 3584 
Q 2172 3584 2448 3432 
Q 2725 3281 2906 2969 
z
M 947 1747 
Q 947 1113 1208 752 
Q 1469 391 1925 391 
Q 2381 391 2643 752 
Q 2906 1113 2906 1747 
Q 2906 2381 2643 2742 
Q 2381 3103 1925 3103 
Q 1469 3103 1208 2742 
Q 947 2381 947 1747 
z
" transform="scale(0.015625)"/>
       <path id="DejaVuSans-6c" d="M 603 4863 
L 1178 4863 
L 1178 0 
L 603 0 
L 603 4863 
z
" transform="scale(0.015625)"/>
      </defs>
      <use xlink:href="#DejaVuSans-49"/>
      <use xlink:href="#DejaVuSans-6e" transform="translate(29.492188 0)"/>
      <use xlink:href="#DejaVuSans-64" transform="translate(92.871094 0)"/>
      <use xlink:href="#DejaVuSans-75" transform="translate(156.347656 0)"/>
      <use xlink:href="#DejaVuSans-73" transform="translate(219.726562 0)"/>
      <use xlink:href="#DejaVuSans-74" transform="translate(271.826172 0)"/>
      <use xlink:href="#DejaVuSans-72" transform="translate(311.035156 0)"/>
      <use xlink:href="#DejaVuSans-69" transform="translate(352.148438 0)"/>
      <use xlink:href="#DejaVuSans-61" transform="translate(379.931641 0)"/>
      <use xlink:href="#DejaVuSans-6c" transform="translate(441.210938 0)"/>
      <use xlink:href="#DejaVuSans-20" transform="translate(468.994141 0)"/>
      <use xlink:href="#DejaVuSans-73" transform="translate(500.78125 0)"/>
      <use xlink:href="#DejaVuSans-74" transform="translate(552.880859 0)"/>
      <use xlink:href="#DejaVuSans-72" transform="translate(592.089844 0)"/>
      <use xlink:href="#DejaVuSans-75" transform="translate(633.203125 0)"/>
      <use xlink:href="#DejaVuSans-63" transform="translate(696.582031 0)"/>
      <use xlink:href="#DejaVuSans-74" transform="translate(751.5625 0)"/>
      <use xlink:href="#DejaVuSans-75" transform="translate(790.771484 0)"/>
      <use xlink:href="#DejaVuSans-72" transform="translate(854.150391 0)"/>
      <use xlink:href="#DejaVuSans-65" transform="translate(893.013672 0)"/>
      <use xlink:href="#DejaVuSans-20" transform="translate(954.537109 0)"/>
      <use xlink:href="#DejaVuSans-65" transform="translate(986.324219 0)"/>
      <use xlink:href="#DejaVuSans-66" transform="translate(1047.847656 0)"/>
      <use xlink:href="#DejaVuSans-66" transform="translate(1083.052734 0)"/>
      <use xlink:href="#DejaVuSans-65" transform="translate(1118.257812 0)"/>
      <use xlink:href="#DejaVuSans-63" transform="translate(1179.78125 0)"/>
      <use xlink:href="#DejaVuSans-74" transform="translate(1234.761719 0)"/>
     </g>
    </g>
    <g id="patch_187">
     <path d="M 635.667812 642.052406 
L 650.067812 642.052406 
L 650.067812 628.282406 
L 635.667812 628.282406 
z
" style="fill: #5b9bd5"/>
    </g>
    <g id="text_27">
     <!-- Economic activity scale -->
     <g transform="translate(664.467812 641.422406) scale(0.18 -0.18)">
      <defs>
       <path id="DejaVuSans-76" d="M 191 3500 
L 800 3500 
L 1894 563 
L 2988 3500 
L 3597 3500 
L 2284 0 
L 1503 0 
L 191 3500 
z
" transform="scale(0.015625)"/>
      </defs>
      <use xlink:href="#DejaVuSans-45"/>
      <use xlink:href="#DejaVuSans-63" transform="translate(63.183594 0)"/>
      <use xlink:href="#DejaVuSans-6f" transform="translate(118.164062 0)"/>
      <use xlink:href="#DejaVuSans-6e" transform="translate(179.345703 0)"/>
      <use xlink:href="#DejaVuSans-6f" transform="translate(242.724609 0)"/>
      <use xlink:href="#DejaVuSans-6d" transform="translate(303.90625 0)"/>
      <use xlink:href="#DejaVuSans-69" transform="translate(401.318359 0)"/>
      <use xlink:href="#DejaVuSans-63" transform="translate(429.101562 0)"/>
      <use xlink:href="#DejaVuSans-20" transform="translate(484.082031 0)"/>
      <use xlink:href="#DejaVuSans-61" transform="translate(515.869141 0)"/>
      <use xlink:href="#DejaVuSans-63" transform="translate(577.148438 0)"/>
      <use xlink:href="#DejaVuSans-74" transform="translate(632.128906 0)"/>
      <use xlink:href="#DejaVuSans-69" transform="translate(671.337891 0)"/>
      <use xlink:href="#DejaVuSans-76" transform="translate(699.121094 0)"/>
      <use xlink:href="#DejaVuSans-69" transform="translate(758.300781 0)"/>
      <use xlink:href="#DejaVuSans-74" transform="translate(786.083984 0)"/>
      <use xlink:href="#DejaVuSans-79" transform="translate(825.292969 0)"/>
      <use xlink:href="#DejaVuSans-20" transform="translate(884.472656 0)"/>
      <use xlink:href="#DejaVuSans-73" transform="translate(916.259766 0)"/>
      <use xlink:href="#DejaVuSans-63" transform="translate(968.359375 0)"/>
      <use xlink:href="#DejaVuSans-61" transform="translate(1023.339844 0)"/>
      <use xlink:href="#DejaVuSans-6c" transform="translate(1084.619141 0)"/>
      <use xlink:href="#DejaVuSans-65" transform="translate(1112.402344 0)"/>
     </g>
    </g>
    <g id="patch_188">
     <path d="M 635.667812 677.473031 
L 650.067812 677.473031 
L 650.067812 663.703031 
L 635.667812 663.703031 
z
" style="fill: #70ad47"/>
    </g>
    <g id="text_28">
     <!-- Population scale -->
     <g transform="translate(664.467812 676.843031) scale(0.18 -0.18)">
      <defs>
       <path id="DejaVuSans-50" d="M 1259 4147 
L 1259 2394 
L 2053 2394 
Q 2494 2394 2734 2622 
Q 2975 2850 2975 3272 
Q 2975 3691 2734 3919 
Q 2494 4147 2053 4147 
L 1259 4147 
z
M 628 4666 
L 2053 4666 
Q 2838 4666 3239 4311 
Q 3641 3956 3641 3272 
Q 3641 2581 3239 2228 
Q 2838 1875 2053 1875 
L 1259 1875 
L 1259 0 
L 628 0 
L 628 4666 
z
" transform="scale(0.015625)"/>
      </defs>
      <use xlink:href="#DejaVuSans-50"/>
      <use xlink:href="#DejaVuSans-6f" transform="translate(56.677734 0)"/>
      <use xlink:href="#DejaVuSans-70" transform="translate(117.859375 0)"/>
      <use xlink:href="#DejaVuSans-75" transform="translate(181.335938 0)"/>
      <use xlink:href="#DejaVuSans-6c" transform="translate(244.714844 0)"/>
      <use xlink:href="#DejaVuSans-61" transform="translate(272.498047 0)"/>
      <use xlink:href="#DejaVuSans-74" transform="translate(333.777344 0)"/>
      <use xlink:href="#DejaVuSans-69" transform="translate(372.986328 0)"/>
      <use xlink:href="#DejaVuSans-6f" transform="translate(400.769531 0)"/>
      <use xlink:href="#DejaVuSans-6e" transform="translate(461.951172 0)"/>
      <use xlink:href="#DejaVuSans-20" transform="translate(525.330078 0)"/>
      <use xlink:href="#DejaVuSans-73" transform="translate(557.117188 0)"/>
      <use xlink:href="#DejaVuSans-63" transform="translate(609.216797 0)"/>
      <use xlink:href="#DejaVuSans-61" transform="translate(664.197266 0)"/>
      <use xlink:href="#DejaVuSans-6c" transform="translate(725.476562 0)"/>
      <use xlink:href="#DejaVuSans-65" transform="translate(753.259766 0)"/>
     </g>
    </g>
   </g>
  </g>
 </g>
 <defs>
  <clipPath id="pba81b218cf">
   <rect x="71.593437" y="14.038594" width="1048.78" height="535.32"/>
  </clipPath>
 </defs>
</svg>
